{
	"patcher" : 	{
		"fileversion" : 1,
		"appversion" : 		{
			"major" : 8,
			"minor" : 0,
			"revision" : 3,
			"architecture" : "x64",
			"modernui" : 1
		}
,
		"classnamespace" : "box",
		"rect" : [ 549.0, 80.0, 487.0, 686.0 ],
		"bglocked" : 0,
		"openinpresentation" : 0,
		"default_fontsize" : 12.0,
		"default_fontface" : 0,
		"default_fontname" : "Arial",
		"gridonopen" : 1,
		"gridsize" : [ 15.0, 15.0 ],
		"gridsnaponopen" : 1,
		"objectsnaponopen" : 1,
		"statusbarvisible" : 2,
		"toolbarvisible" : 1,
		"lefttoolbarpinned" : 0,
		"toptoolbarpinned" : 0,
		"righttoolbarpinned" : 0,
		"bottomtoolbarpinned" : 0,
		"toolbars_unpinned_last_save" : 0,
		"tallnewobj" : 0,
		"boxanimatetime" : 200,
		"enablehscroll" : 1,
		"enablevscroll" : 1,
		"devicewidth" : 0.0,
		"description" : "",
		"digest" : "",
		"tags" : "",
		"style" : "",
		"subpatcher_template" : "",
		"boxes" : [ 			{
				"box" : 				{
					"id" : "obj-59",
					"maxclass" : "button",
					"numinlets" : 1,
					"numoutlets" : 1,
					"outlettype" : [ "bang" ],
					"parameter_enable" : 0,
					"patching_rect" : [ 496.0, 230.0, 24.0, 24.0 ]
				}

			}
, 			{
				"box" : 				{
					"id" : "obj-50",
					"maxclass" : "newobj",
					"numinlets" : 2,
					"numoutlets" : 1,
					"outlettype" : [ "bang" ],
					"patching_rect" : [ 482.0, 182.5, 56.0, 22.0 ],
					"text" : "metro 50"
				}

			}
, 			{
				"box" : 				{
					"floatoutput" : 1,
					"id" : "obj-34",
					"maxclass" : "dial",
					"numinlets" : 1,
					"numoutlets" : 1,
					"outlettype" : [ "float" ],
					"parameter_enable" : 0,
					"patching_rect" : [ 462.0, 59.5, 40.0, 40.0 ],
					"size" : 100.0
				}

			}
, 			{
				"box" : 				{
					"id" : "obj-44",
					"maxclass" : "message",
					"numinlets" : 2,
					"numoutlets" : 1,
					"outlettype" : [ "" ],
					"patching_rect" : [ 531.5, 231.5, 153.0, 22.0 ],
					"text" : "light 100. 0 114 33 18"
				}

			}
, 			{
				"box" : 				{
					"id" : "obj-39",
					"maxclass" : "newobj",
					"numinlets" : 1,
					"numoutlets" : 3,
					"outlettype" : [ "float", "float", "float" ],
					"patching_rect" : [ 528.0, 91.5, 67.0, 22.0 ],
					"text" : "unpack f f f"
				}

			}
, 			{
				"box" : 				{
					"id" : "obj-35",
					"maxclass" : "toggle",
					"numinlets" : 1,
					"numoutlets" : 1,
					"outlettype" : [ "int" ],
					"parameter_enable" : 0,
					"patching_rect" : [ 528.0, 12.0, 20.0, 20.0 ]
				}

			}
, 			{
				"box" : 				{
					"fontname" : "Arial",
					"fontsize" : 13.0,
					"id" : "obj-37",
					"maxclass" : "newobj",
					"numinlets" : 1,
					"numoutlets" : 1,
					"outlettype" : [ "" ],
					"patcher" : 					{
						"fileversion" : 1,
						"appversion" : 						{
							"major" : 8,
							"minor" : 0,
							"revision" : 3,
							"architecture" : "x64",
							"modernui" : 1
						}
,
						"classnamespace" : "box",
						"rect" : [ 40.0, 79.0, 628.0, 446.0 ],
						"bglocked" : 0,
						"openinpresentation" : 0,
						"default_fontsize" : 10.0,
						"default_fontface" : 0,
						"default_fontname" : "Arial",
						"gridonopen" : 1,
						"gridsize" : [ 15.0, 15.0 ],
						"gridsnaponopen" : 1,
						"objectsnaponopen" : 1,
						"statusbarvisible" : 2,
						"toolbarvisible" : 1,
						"lefttoolbarpinned" : 0,
						"toptoolbarpinned" : 0,
						"righttoolbarpinned" : 0,
						"bottomtoolbarpinned" : 0,
						"toolbars_unpinned_last_save" : 0,
						"tallnewobj" : 0,
						"boxanimatetime" : 200,
						"enablehscroll" : 1,
						"enablevscroll" : 1,
						"devicewidth" : 0.0,
						"description" : "",
						"digest" : "",
						"tags" : "",
						"style" : "",
						"subpatcher_template" : "",
						"boxes" : [ 							{
								"box" : 								{
									"comment" : "",
									"id" : "obj-1",
									"index" : 1,
									"maxclass" : "inlet",
									"numinlets" : 0,
									"numoutlets" : 1,
									"outlettype" : [ "int" ],
									"patching_rect" : [ 26.0, 9.0, 25.0, 25.0 ]
								}

							}
, 							{
								"box" : 								{
									"comment" : "",
									"id" : "obj-2",
									"index" : 1,
									"maxclass" : "outlet",
									"numinlets" : 1,
									"numoutlets" : 0,
									"patching_rect" : [ 26.0, 264.0, 25.0, 25.0 ]
								}

							}
, 							{
								"box" : 								{
									"fontname" : "Arial",
									"fontsize" : 11.595186999999999,
									"id" : "obj-3",
									"maxclass" : "newobj",
									"numinlets" : 3,
									"numoutlets" : 1,
									"outlettype" : [ "" ],
									"patching_rect" : [ 26.0, 186.0, 175.0, 21.0 ],
									"text" : "pack i i i"
								}

							}
, 							{
								"box" : 								{
									"fontname" : "Arial",
									"fontsize" : 11.595186999999999,
									"id" : "obj-4",
									"maxclass" : "newobj",
									"numinlets" : 2,
									"numoutlets" : 1,
									"outlettype" : [ "bang" ],
									"patching_rect" : [ 181.5, 82.0, 69.0, 21.0 ],
									"text" : "metro 1300"
								}

							}
, 							{
								"box" : 								{
									"fontname" : "Arial",
									"fontsize" : 11.595186999999999,
									"id" : "obj-5",
									"maxclass" : "message",
									"numinlets" : 2,
									"numoutlets" : 1,
									"outlettype" : [ "" ],
									"patching_rect" : [ 181.5, 132.0, 52.0, 21.0 ],
									"text" : "$1 1300"
								}

							}
, 							{
								"box" : 								{
									"fontname" : "Arial",
									"fontsize" : 11.595186999999999,
									"id" : "obj-6",
									"maxclass" : "newobj",
									"numinlets" : 2,
									"numoutlets" : 1,
									"outlettype" : [ "int" ],
									"patching_rect" : [ 181.5, 107.0, 72.0, 21.0 ],
									"text" : "random 256"
								}

							}
, 							{
								"box" : 								{
									"fontname" : "Arial",
									"fontsize" : 11.595186999999999,
									"id" : "obj-7",
									"maxclass" : "newobj",
									"numinlets" : 3,
									"numoutlets" : 2,
									"outlettype" : [ "", "bang" ],
									"patching_rect" : [ 181.5, 157.0, 51.0, 21.0 ],
									"text" : "line 100"
								}

							}
, 							{
								"box" : 								{
									"fontname" : "Arial",
									"fontsize" : 11.595186999999999,
									"id" : "obj-8",
									"maxclass" : "newobj",
									"numinlets" : 3,
									"numoutlets" : 2,
									"outlettype" : [ "", "bang" ],
									"patching_rect" : [ 103.5, 157.333327999999995, 51.0, 21.0 ],
									"text" : "line 100"
								}

							}
, 							{
								"box" : 								{
									"fontname" : "Arial",
									"fontsize" : 11.595186999999999,
									"id" : "obj-9",
									"maxclass" : "newobj",
									"numinlets" : 2,
									"numoutlets" : 1,
									"outlettype" : [ "int" ],
									"patching_rect" : [ 103.5, 107.333336000000003, 72.0, 21.0 ],
									"text" : "random 256"
								}

							}
, 							{
								"box" : 								{
									"fontname" : "Arial",
									"fontsize" : 11.595186999999999,
									"id" : "obj-10",
									"maxclass" : "message",
									"numinlets" : 2,
									"numoutlets" : 1,
									"outlettype" : [ "" ],
									"patching_rect" : [ 103.5, 132.333344000000011, 46.0, 21.0 ],
									"text" : "$1 900"
								}

							}
, 							{
								"box" : 								{
									"fontname" : "Arial",
									"fontsize" : 11.595186999999999,
									"id" : "obj-11",
									"maxclass" : "newobj",
									"numinlets" : 2,
									"numoutlets" : 1,
									"outlettype" : [ "bang" ],
									"patching_rect" : [ 103.5, 82.0, 63.0, 21.0 ],
									"text" : "metro 900"
								}

							}
, 							{
								"box" : 								{
									"id" : "obj-12",
									"maxclass" : "toggle",
									"numinlets" : 1,
									"numoutlets" : 1,
									"outlettype" : [ "int" ],
									"parameter_enable" : 0,
									"patching_rect" : [ 26.0, 46.0, 20.0, 20.0 ]
								}

							}
, 							{
								"box" : 								{
									"fontname" : "Arial",
									"fontsize" : 11.595186999999999,
									"id" : "obj-13",
									"maxclass" : "newobj",
									"numinlets" : 2,
									"numoutlets" : 1,
									"outlettype" : [ "bang" ],
									"patching_rect" : [ 26.0, 82.0, 69.0, 21.0 ],
									"text" : "metro 1000"
								}

							}
, 							{
								"box" : 								{
									"fontname" : "Arial",
									"fontsize" : 11.595186999999999,
									"id" : "obj-14",
									"maxclass" : "message",
									"numinlets" : 2,
									"numoutlets" : 1,
									"outlettype" : [ "" ],
									"patching_rect" : [ 26.0, 132.333344000000011, 52.0, 21.0 ],
									"text" : "$1 1000"
								}

							}
, 							{
								"box" : 								{
									"fontname" : "Arial",
									"fontsize" : 11.595186999999999,
									"id" : "obj-15",
									"maxclass" : "newobj",
									"numinlets" : 2,
									"numoutlets" : 1,
									"outlettype" : [ "int" ],
									"patching_rect" : [ 26.0, 107.333336000000003, 72.0, 21.0 ],
									"text" : "random 256"
								}

							}
, 							{
								"box" : 								{
									"fontname" : "Arial",
									"fontsize" : 11.595186999999999,
									"id" : "obj-16",
									"maxclass" : "newobj",
									"numinlets" : 3,
									"numoutlets" : 2,
									"outlettype" : [ "", "bang" ],
									"patching_rect" : [ 26.0, 157.333327999999995, 51.0, 21.0 ],
									"text" : "line 100"
								}

							}
, 							{
								"box" : 								{
									"fontname" : "Arial",
									"fontsize" : 11.595186999999999,
									"id" : "obj-17",
									"maxclass" : "comment",
									"numinlets" : 1,
									"numoutlets" : 0,
									"patching_rect" : [ 59.0, 45.0, 185.0, 19.0 ],
									"text" : "<- turn on mood machine"
								}

							}
 ],
						"lines" : [ 							{
								"patchline" : 								{
									"destination" : [ "obj-12", 0 ],
									"source" : [ "obj-1", 0 ]
								}

							}
, 							{
								"patchline" : 								{
									"destination" : [ "obj-8", 0 ],
									"source" : [ "obj-10", 0 ]
								}

							}
, 							{
								"patchline" : 								{
									"destination" : [ "obj-9", 0 ],
									"source" : [ "obj-11", 0 ]
								}

							}
, 							{
								"patchline" : 								{
									"destination" : [ "obj-11", 0 ],
									"order" : 1,
									"source" : [ "obj-12", 0 ]
								}

							}
, 							{
								"patchline" : 								{
									"destination" : [ "obj-13", 0 ],
									"order" : 2,
									"source" : [ "obj-12", 0 ]
								}

							}
, 							{
								"patchline" : 								{
									"destination" : [ "obj-4", 0 ],
									"order" : 0,
									"source" : [ "obj-12", 0 ]
								}

							}
, 							{
								"patchline" : 								{
									"destination" : [ "obj-15", 0 ],
									"source" : [ "obj-13", 0 ]
								}

							}
, 							{
								"patchline" : 								{
									"destination" : [ "obj-16", 0 ],
									"source" : [ "obj-14", 0 ]
								}

							}
, 							{
								"patchline" : 								{
									"destination" : [ "obj-14", 0 ],
									"source" : [ "obj-15", 0 ]
								}

							}
, 							{
								"patchline" : 								{
									"destination" : [ "obj-3", 0 ],
									"source" : [ "obj-16", 0 ]
								}

							}
, 							{
								"patchline" : 								{
									"destination" : [ "obj-2", 0 ],
									"source" : [ "obj-3", 0 ]
								}

							}
, 							{
								"patchline" : 								{
									"destination" : [ "obj-6", 0 ],
									"source" : [ "obj-4", 0 ]
								}

							}
, 							{
								"patchline" : 								{
									"destination" : [ "obj-7", 0 ],
									"source" : [ "obj-5", 0 ]
								}

							}
, 							{
								"patchline" : 								{
									"destination" : [ "obj-5", 0 ],
									"source" : [ "obj-6", 0 ]
								}

							}
, 							{
								"patchline" : 								{
									"destination" : [ "obj-3", 2 ],
									"source" : [ "obj-7", 0 ]
								}

							}
, 							{
								"patchline" : 								{
									"destination" : [ "obj-3", 1 ],
									"source" : [ "obj-8", 0 ]
								}

							}
, 							{
								"patchline" : 								{
									"destination" : [ "obj-10", 0 ],
									"source" : [ "obj-9", 0 ]
								}

							}
 ]
					}
,
					"patching_rect" : [ 528.0, 46.0, 111.0, 23.0 ],
					"saved_object_attributes" : 					{
						"description" : "",
						"digest" : "",
						"fontsize" : 10.0,
						"globalpatchername" : "",
						"tags" : ""
					}
,
					"text" : "p mood_machine"
				}

			}
, 			{
				"box" : 				{
					"id" : "obj-30",
					"maxclass" : "newobj",
					"numinlets" : 6,
					"numoutlets" : 1,
					"outlettype" : [ "" ],
					"patching_rect" : [ 528.0, 145.5, 108.0, 22.0 ],
					"text" : "pak light 100. 1 i i i"
				}

			}
, 			{
				"box" : 				{
					"id" : "obj-29",
					"maxclass" : "message",
					"numinlets" : 2,
					"numoutlets" : 1,
					"outlettype" : [ "" ],
					"patching_rect" : [ 394.25, 485.0, 50.0, 22.0 ],
					"text" : "1"
				}

			}
, 			{
				"box" : 				{
					"id" : "obj-28",
					"maxclass" : "message",
					"numinlets" : 2,
					"numoutlets" : 1,
					"outlettype" : [ "" ],
					"patching_rect" : [ 332.0, 485.0, 50.0, 22.0 ],
					"text" : "2"
				}

			}
, 			{
				"box" : 				{
					"id" : "obj-19",
					"maxclass" : "newobj",
					"numinlets" : 3,
					"numoutlets" : 3,
					"outlettype" : [ "", "", "" ],
					"patching_rect" : [ 348.75, 447.0, 120.0, 22.0 ],
					"text" : "route shoot compass"
				}

			}
, 			{
				"box" : 				{
					"id" : "obj-17",
					"linecount" : 2,
					"maxclass" : "message",
					"numinlets" : 2,
					"numoutlets" : 1,
					"outlettype" : [ "" ],
					"patching_rect" : [ 360.5, 552.0, 96.5, 35.0 ],
					"text" : "welcome Welcome!!"
				}

			}
, 			{
				"box" : 				{
					"id" : "obj-2",
					"maxclass" : "newobj",
					"numinlets" : 1,
					"numoutlets" : 2,
					"outlettype" : [ "bang", "int" ],
					"patching_rect" : [ 176.0, 127.0, 29.5, 22.0 ],
					"text" : "t b i"
				}

			}
, 			{
				"box" : 				{
					"id" : "obj-11",
					"linecount" : 2,
					"maxclass" : "message",
					"numinlets" : 2,
					"numoutlets" : 1,
					"outlettype" : [ "" ],
					"patching_rect" : [ 5.5, 528.5, 71.0, 35.0 ],
					"text" : "welcome Welcome!!"
				}

			}
, 			{
				"box" : 				{
					"id" : "obj-68",
					"maxclass" : "number",
					"numinlets" : 1,
					"numoutlets" : 2,
					"outlettype" : [ "", "bang" ],
					"parameter_enable" : 0,
					"patching_rect" : [ 256.0, 24.0, 50.0, 22.0 ]
				}

			}
, 			{
				"box" : 				{
					"fontname" : "Arial",
					"fontsize" : 13.0,
					"id" : "obj-20",
					"maxclass" : "message",
					"numinlets" : 2,
					"numoutlets" : 1,
					"outlettype" : [ "" ],
					"patching_rect" : [ 219.75, 81.5, 42.0, 23.0 ],
					"text" : "clear"
				}

			}
, 			{
				"box" : 				{
					"id" : "obj-66",
					"maxclass" : "newobj",
					"numinlets" : 2,
					"numoutlets" : 2,
					"outlettype" : [ "int", "bang" ],
					"patching_rect" : [ 176.0, 81.5, 36.0, 22.0 ],
					"text" : "urn 4"
				}

			}
, 			{
				"box" : 				{
					"id" : "obj-62",
					"maxclass" : "toggle",
					"numinlets" : 1,
					"numoutlets" : 1,
					"outlettype" : [ "int" ],
					"parameter_enable" : 0,
					"patching_rect" : [ 176.0, 15.0, 24.0, 24.0 ]
				}

			}
, 			{
				"box" : 				{
					"id" : "obj-60",
					"maxclass" : "newobj",
					"numinlets" : 2,
					"numoutlets" : 1,
					"outlettype" : [ "bang" ],
					"patching_rect" : [ 176.0, 43.0, 69.0, 22.0 ],
					"text" : "metro 2000"
				}

			}
, 			{
				"box" : 				{
					"clipheight" : 22.6875,
					"data" : 					{
						"clips" : [ 							{
								"absolutepath" : "Macintosh HD:/Users/CHI/Documents/User Loops/VOICE/VOL_1/CPAVX_WAV_HITS/CPAVX_VOX_HITS_165/CPAVX_VOX_HIT_165_01.wav",
								"filename" : "CPAVX_VOX_HIT_165_01.wav",
								"filekind" : "audiofile",
								"loop" : 0,
								"content_state" : 								{
									"originallength" : [ 0.0, "ticks" ],
									"originallengthms" : [ 0.0 ],
									"play" : [ 0 ],
									"mode" : [ "basic" ],
									"originaltempo" : [ 120.0 ],
									"slurtime" : [ 0.0 ],
									"basictuning" : [ 440 ],
									"speed" : [ 1.0 ],
									"pitchcorrection" : [ 0 ],
									"quality" : [ "basic" ],
									"followglobaltempo" : [ 0 ],
									"pitchshift" : [ 1.0 ],
									"timestretch" : [ 0 ],
									"formantcorrection" : [ 0 ],
									"formant" : [ 1.0 ]
								}

							}
, 							{
								"absolutepath" : "Macintosh HD:/Users/CHI/Documents/User Loops/VOICE/VOL_1/CPAVX_WAV_HITS/CPAVX_VOX_HITS_165/CPAVX_VOX_HIT_165_02.wav",
								"filename" : "CPAVX_VOX_HIT_165_02.wav",
								"filekind" : "audiofile",
								"loop" : 0,
								"content_state" : 								{
									"originallength" : [ 0.0, "ticks" ],
									"originallengthms" : [ 0.0 ],
									"play" : [ 0 ],
									"mode" : [ "basic" ],
									"originaltempo" : [ 120.0 ],
									"slurtime" : [ 0.0 ],
									"basictuning" : [ 440 ],
									"speed" : [ 1.0 ],
									"pitchcorrection" : [ 0 ],
									"quality" : [ "basic" ],
									"followglobaltempo" : [ 0 ],
									"pitchshift" : [ 1.0 ],
									"timestretch" : [ 0 ],
									"formantcorrection" : [ 0 ],
									"formant" : [ 1.0 ]
								}

							}
, 							{
								"absolutepath" : "Macintosh HD:/Users/CHI/Documents/User Loops/VOICE/VOL_1/CPAVX_WAV_HITS/CPAVX_VOX_HITS_165/CPAVX_VOX_HIT_165_03.wav",
								"filename" : "CPAVX_VOX_HIT_165_03.wav",
								"filekind" : "audiofile",
								"loop" : 0,
								"content_state" : 								{
									"originallength" : [ 0.0, "ticks" ],
									"originallengthms" : [ 0.0 ],
									"play" : [ 0 ],
									"mode" : [ "basic" ],
									"originaltempo" : [ 120.0 ],
									"slurtime" : [ 0.0 ],
									"basictuning" : [ 440 ],
									"speed" : [ 1.0 ],
									"pitchcorrection" : [ 0 ],
									"quality" : [ "basic" ],
									"followglobaltempo" : [ 0 ],
									"pitchshift" : [ 1.0 ],
									"timestretch" : [ 0 ],
									"formantcorrection" : [ 0 ],
									"formant" : [ 1.0 ]
								}

							}
, 							{
								"absolutepath" : "Macintosh HD:/Users/CHI/Documents/User Loops/VOICE/VOL_1/CPAVX_WAV_HITS/CPAVX_VOX_HITS_165/CPAVX_VOX_HIT_165_04.wav",
								"filename" : "CPAVX_VOX_HIT_165_04.wav",
								"filekind" : "audiofile",
								"loop" : 0,
								"content_state" : 								{
									"originallength" : [ 0.0, "ticks" ],
									"originallengthms" : [ 0.0 ],
									"play" : [ 0 ],
									"mode" : [ "basic" ],
									"originaltempo" : [ 120.0 ],
									"slurtime" : [ 0.0 ],
									"basictuning" : [ 440 ],
									"speed" : [ 1.0 ],
									"pitchcorrection" : [ 0 ],
									"quality" : [ "basic" ],
									"followglobaltempo" : [ 0 ],
									"pitchshift" : [ 1.0 ],
									"timestretch" : [ 0 ],
									"formantcorrection" : [ 0 ],
									"formant" : [ 1.0 ]
								}

							}
, 							{
								"absolutepath" : "Macintosh HD:/Users/CHI/Documents/User Loops/VOICE/VOL_1/CPAVX_WAV_HITS/CPAVX_VOX_HITS_165/CPAVX_VOX_HIT_165_05.wav",
								"filename" : "CPAVX_VOX_HIT_165_05.wav",
								"filekind" : "audiofile",
								"loop" : 0,
								"content_state" : 								{
									"originallength" : [ 0.0, "ticks" ],
									"originallengthms" : [ 0.0 ],
									"play" : [ 0 ],
									"mode" : [ "basic" ],
									"originaltempo" : [ 120.0 ],
									"slurtime" : [ 0.0 ],
									"basictuning" : [ 440 ],
									"speed" : [ 1.0 ],
									"pitchcorrection" : [ 0 ],
									"quality" : [ "basic" ],
									"followglobaltempo" : [ 0 ],
									"pitchshift" : [ 1.0 ],
									"timestretch" : [ 0 ],
									"formantcorrection" : [ 0 ],
									"formant" : [ 1.0 ]
								}

							}
, 							{
								"absolutepath" : "Macintosh HD:/Users/CHI/Documents/User Loops/VOICE/VOL_1/CPAVX_WAV_HITS/CPAVX_VOX_HITS_165/CPAVX_VOX_HIT_165_06.wav",
								"filename" : "CPAVX_VOX_HIT_165_06.wav",
								"filekind" : "audiofile",
								"loop" : 0,
								"content_state" : 								{
									"originallength" : [ 0.0, "ticks" ],
									"originallengthms" : [ 0.0 ],
									"play" : [ 0 ],
									"mode" : [ "basic" ],
									"originaltempo" : [ 120.0 ],
									"slurtime" : [ 0.0 ],
									"basictuning" : [ 440 ],
									"speed" : [ 1.0 ],
									"pitchcorrection" : [ 0 ],
									"quality" : [ "basic" ],
									"followglobaltempo" : [ 0 ],
									"pitchshift" : [ 1.0 ],
									"timestretch" : [ 0 ],
									"formantcorrection" : [ 0 ],
									"formant" : [ 1.0 ]
								}

							}
, 							{
								"absolutepath" : "Macintosh HD:/Users/CHI/Documents/User Loops/VOICE/VOL_1/CPAVX_WAV_HITS/CPAVX_VOX_HITS_165/CPAVX_VOX_HIT_165_07.wav",
								"filename" : "CPAVX_VOX_HIT_165_07.wav",
								"filekind" : "audiofile",
								"loop" : 0,
								"content_state" : 								{
									"originallength" : [ 0.0, "ticks" ],
									"originallengthms" : [ 0.0 ],
									"play" : [ 0 ],
									"mode" : [ "basic" ],
									"originaltempo" : [ 120.0 ],
									"slurtime" : [ 0.0 ],
									"basictuning" : [ 440 ],
									"speed" : [ 1.0 ],
									"pitchcorrection" : [ 0 ],
									"quality" : [ "basic" ],
									"followglobaltempo" : [ 0 ],
									"pitchshift" : [ 1.0 ],
									"timestretch" : [ 0 ],
									"formantcorrection" : [ 0 ],
									"formant" : [ 1.0 ]
								}

							}
, 							{
								"absolutepath" : "Macintosh HD:/Users/CHI/Documents/User Loops/VOICE/VOL_1/CPAVX_WAV_HITS/CPAVX_VOX_HITS_165/CPAVX_VOX_HIT_165_08.wav",
								"filename" : "CPAVX_VOX_HIT_165_08.wav",
								"filekind" : "audiofile",
								"loop" : 0,
								"content_state" : 								{
									"originallength" : [ 0.0, "ticks" ],
									"originallengthms" : [ 0.0 ],
									"play" : [ 0 ],
									"mode" : [ "basic" ],
									"originaltempo" : [ 120.0 ],
									"slurtime" : [ 0.0 ],
									"basictuning" : [ 440 ],
									"speed" : [ 1.0 ],
									"pitchcorrection" : [ 0 ],
									"quality" : [ "basic" ],
									"followglobaltempo" : [ 0 ],
									"pitchshift" : [ 1.0 ],
									"timestretch" : [ 0 ],
									"formantcorrection" : [ 0 ],
									"formant" : [ 1.0 ]
								}

							}
 ]
					}
,
					"id" : "obj-58",
					"maxclass" : "playlist~",
					"numinlets" : 1,
					"numoutlets" : 5,
					"outlettype" : [ "signal", "signal", "signal", "", "dictionary" ],
					"patching_rect" : [ 211.0, 713.0, 149.0, 189.5 ]
				}

			}
, 			{
				"box" : 				{
					"id" : "obj-53",
					"maxclass" : "newobj",
					"numinlets" : 2,
					"numoutlets" : 1,
					"outlettype" : [ "" ],
					"patching_rect" : [ 48.0, 709.5, 80.0, 22.0 ],
					"text" : "speedlim 250"
				}

			}
, 			{
				"box" : 				{
					"id" : "obj-51",
					"maxclass" : "newobj",
					"numinlets" : 2,
					"numoutlets" : 1,
					"outlettype" : [ "int" ],
					"patching_rect" : [ 211.0, 682.5, 29.5, 22.0 ],
					"text" : "+ 1"
				}

			}
, 			{
				"box" : 				{
					"id" : "obj-52",
					"maxclass" : "newobj",
					"numinlets" : 2,
					"numoutlets" : 1,
					"outlettype" : [ "int" ],
					"patching_rect" : [ 211.0, 655.5, 59.0, 22.0 ],
					"text" : "random 8"
				}

			}
, 			{
				"box" : 				{
					"id" : "obj-47",
					"maxclass" : "newobj",
					"numinlets" : 2,
					"numoutlets" : 1,
					"outlettype" : [ "int" ],
					"patching_rect" : [ 539.0, 682.5, 29.5, 22.0 ],
					"text" : "+ 1"
				}

			}
, 			{
				"box" : 				{
					"id" : "obj-48",
					"maxclass" : "newobj",
					"numinlets" : 2,
					"numoutlets" : 1,
					"outlettype" : [ "int" ],
					"patching_rect" : [ 539.0, 655.5, 59.0, 22.0 ],
					"text" : "random 4"
				}

			}
, 			{
				"box" : 				{
					"id" : "obj-45",
					"maxclass" : "newobj",
					"numinlets" : 2,
					"numoutlets" : 1,
					"outlettype" : [ "int" ],
					"patching_rect" : [ 373.0, 682.5, 29.5, 22.0 ],
					"text" : "+ 1"
				}

			}
, 			{
				"box" : 				{
					"id" : "obj-46",
					"maxclass" : "newobj",
					"numinlets" : 2,
					"numoutlets" : 1,
					"outlettype" : [ "int" ],
					"patching_rect" : [ 373.0, 655.5, 59.0, 22.0 ],
					"text" : "random 8"
				}

			}
, 			{
				"box" : 				{
					"id" : "obj-42",
					"maxclass" : "newobj",
					"numinlets" : 2,
					"numoutlets" : 0,
					"patching_rect" : [ 284.0, 961.0, 35.0, 22.0 ],
					"text" : "dac~"
				}

			}
, 			{
				"box" : 				{
					"id" : "obj-31",
					"maxclass" : "button",
					"numinlets" : 1,
					"numoutlets" : 1,
					"outlettype" : [ "bang" ],
					"parameter_enable" : 0,
					"patching_rect" : [ 140.5, 214.0, 24.0, 24.0 ]
				}

			}
, 			{
				"box" : 				{
					"id" : "obj-26",
					"maxclass" : "newobj",
					"numinlets" : 1,
					"numoutlets" : 0,
					"patching_rect" : [ 95.5, 592.0, 35.0, 22.0 ],
					"text" : "s tap"
				}

			}
, 			{
				"box" : 				{
					"id" : "obj-24",
					"maxclass" : "newobj",
					"numinlets" : 2,
					"numoutlets" : 1,
					"outlettype" : [ "int" ],
					"patching_rect" : [ 47.0, 682.5, 29.5, 22.0 ],
					"text" : "+ 1"
				}

			}
, 			{
				"box" : 				{
					"id" : "obj-23",
					"maxclass" : "newobj",
					"numinlets" : 2,
					"numoutlets" : 1,
					"outlettype" : [ "int" ],
					"patching_rect" : [ 47.0, 655.5, 59.0, 22.0 ],
					"text" : "random 7"
				}

			}
, 			{
				"box" : 				{
					"id" : "obj-38",
					"maxclass" : "newobj",
					"numinlets" : 5,
					"numoutlets" : 1,
					"outlettype" : [ "" ],
					"patching_rect" : [ 204.5, 373.0, 113.0, 22.0 ],
					"text" : "pak blink 100. 0 0 0"
				}

			}
, 			{
				"box" : 				{
					"clipheight" : 22.5,
					"data" : 					{
						"clips" : [ 							{
								"absolutepath" : "/Users/CHI/Documents/User Loops/Organic Electronica - Wav/melodic shots/chord shots/oe_chst_distkeys_F7.wav",
								"filename" : "oe_chst_distkeys_F7.wav",
								"filekind" : "audiofile",
								"loop" : 0,
								"content_state" : 								{
									"originallength" : [ 0.0, "ticks" ],
									"originallengthms" : [ 0.0 ],
									"play" : [ 0 ],
									"mode" : [ "basic" ],
									"originaltempo" : [ 120.0 ],
									"slurtime" : [ 0.0 ],
									"basictuning" : [ 440 ],
									"speed" : [ 1.0 ],
									"pitchcorrection" : [ 0 ],
									"quality" : [ "basic" ],
									"followglobaltempo" : [ 0 ],
									"pitchshift" : [ 1.0 ],
									"timestretch" : [ 0 ],
									"formantcorrection" : [ 0 ],
									"formant" : [ 1.0 ]
								}

							}
, 							{
								"absolutepath" : "/Users/CHI/Documents/User Loops/Organic Electronica - Wav/melodic shots/chord shots/oe_chst_piano_Fm7.wav",
								"filename" : "oe_chst_piano_Fm7.wav",
								"filekind" : "audiofile",
								"loop" : 0,
								"content_state" : 								{
									"originallength" : [ 0.0, "ticks" ],
									"originallengthms" : [ 0.0 ],
									"play" : [ 0 ],
									"mode" : [ "basic" ],
									"originaltempo" : [ 120.0 ],
									"slurtime" : [ 0.0 ],
									"basictuning" : [ 440 ],
									"speed" : [ 1.0 ],
									"pitchcorrection" : [ 0 ],
									"quality" : [ "basic" ],
									"followglobaltempo" : [ 0 ],
									"pitchshift" : [ 1.0 ],
									"timestretch" : [ 0 ],
									"formantcorrection" : [ 0 ],
									"formant" : [ 1.0 ]
								}

							}
, 							{
								"absolutepath" : "/Users/CHI/Documents/User Loops/Organic Electronica - Wav/melodic shots/chord shots/oe_chst_piano_F7.wav",
								"filename" : "oe_chst_piano_F7.wav",
								"filekind" : "audiofile",
								"loop" : 0,
								"content_state" : 								{
									"originallength" : [ 0.0, "ticks" ],
									"originallengthms" : [ 0.0 ],
									"play" : [ 0 ],
									"mode" : [ "basic" ],
									"originaltempo" : [ 120.0 ],
									"slurtime" : [ 0.0 ],
									"basictuning" : [ 440 ],
									"speed" : [ 1.0 ],
									"pitchcorrection" : [ 0 ],
									"quality" : [ "basic" ],
									"followglobaltempo" : [ 0 ],
									"pitchshift" : [ 1.0 ],
									"timestretch" : [ 0 ],
									"formantcorrection" : [ 0 ],
									"formant" : [ 1.0 ]
								}

							}
, 							{
								"absolutepath" : "Macintosh HD:/Users/CHI/Documents/User Loops/Organic Electronica - Wav/melodic shots/chord shots/oe_chst_distkeys_Fm7.wav",
								"filename" : "oe_chst_distkeys_Fm7.wav",
								"filekind" : "audiofile",
								"loop" : 0,
								"content_state" : 								{
									"originallength" : [ 0.0, "ticks" ],
									"originallengthms" : [ 0.0 ],
									"play" : [ 0 ],
									"mode" : [ "basic" ],
									"originaltempo" : [ 120.0 ],
									"slurtime" : [ 0.0 ],
									"basictuning" : [ 440 ],
									"speed" : [ 1.0 ],
									"pitchcorrection" : [ 0 ],
									"quality" : [ "basic" ],
									"followglobaltempo" : [ 0 ],
									"pitchshift" : [ 1.0 ],
									"timestretch" : [ 0 ],
									"formantcorrection" : [ 0 ],
									"formant" : [ 1.0 ]
								}

							}
 ]
					}
,
					"id" : "obj-33",
					"maxclass" : "playlist~",
					"numinlets" : 1,
					"numoutlets" : 5,
					"outlettype" : [ "signal", "signal", "signal", "", "dictionary" ],
					"patching_rect" : [ 539.0, 713.0, 158.0, 94.0 ]
				}

			}
, 			{
				"box" : 				{
					"clipheight" : 23.25,
					"data" : 					{
						"clips" : [ 							{
								"absolutepath" : "/Users/CHI/Documents/User Loops/ZEN_AMBIENT/AMI_SOUNDS_&_FX/AM1_TANKDRUMS/TankDrum_Muted_Hits/AM1_Eb3_TankDrum_Muted.wav",
								"filename" : "AM1_Eb3_TankDrum_Muted.wav",
								"filekind" : "audiofile",
								"loop" : 0,
								"content_state" : 								{
									"originallength" : [ 0.0, "ticks" ],
									"originallengthms" : [ 0.0 ],
									"play" : [ 0 ],
									"mode" : [ "basic" ],
									"originaltempo" : [ 120.0 ],
									"slurtime" : [ 0.0 ],
									"basictuning" : [ 440 ],
									"speed" : [ 1.0 ],
									"pitchcorrection" : [ 0 ],
									"quality" : [ "basic" ],
									"followglobaltempo" : [ 0 ],
									"pitchshift" : [ 1.0 ],
									"timestretch" : [ 0 ],
									"formantcorrection" : [ 0 ],
									"formant" : [ 1.0 ]
								}

							}
, 							{
								"absolutepath" : "/Users/CHI/Documents/User Loops/ZEN_AMBIENT/AMI_SOUNDS_&_FX/AM1_TANKDRUMS/TankDrum_Small_Muted_Hits/AM1_Eb4_TankDrum_Small_Muted.wav",
								"filename" : "AM1_Eb4_TankDrum_Small_Muted.wav",
								"filekind" : "audiofile",
								"loop" : 0,
								"content_state" : 								{
									"originallength" : [ 0.0, "ticks" ],
									"originallengthms" : [ 0.0 ],
									"play" : [ 0 ],
									"mode" : [ "basic" ],
									"originaltempo" : [ 120.0 ],
									"slurtime" : [ 0.0 ],
									"basictuning" : [ 440 ],
									"speed" : [ 1.0 ],
									"pitchcorrection" : [ 0 ],
									"quality" : [ "basic" ],
									"followglobaltempo" : [ 0 ],
									"pitchshift" : [ 1.0 ],
									"timestretch" : [ 0 ],
									"formantcorrection" : [ 0 ],
									"formant" : [ 1.0 ]
								}

							}
, 							{
								"absolutepath" : "/Users/CHI/Documents/User Loops/ZEN_AMBIENT/AMI_SOUNDS_&_FX/AM1_TANKDRUMS/TankDrum_Stick_Hits/AM1_Eb4_TankDrum_Stick.wav",
								"filename" : "AM1_Eb4_TankDrum_Stick.wav",
								"filekind" : "audiofile",
								"loop" : 0,
								"content_state" : 								{
									"originallength" : [ 0.0, "ticks" ],
									"originallengthms" : [ 0.0 ],
									"play" : [ 0 ],
									"mode" : [ "basic" ],
									"originaltempo" : [ 120.0 ],
									"slurtime" : [ 0.0 ],
									"basictuning" : [ 440 ],
									"speed" : [ 1.0 ],
									"pitchcorrection" : [ 0 ],
									"quality" : [ "basic" ],
									"followglobaltempo" : [ 0 ],
									"pitchshift" : [ 1.0 ],
									"timestretch" : [ 0 ],
									"formantcorrection" : [ 0 ],
									"formant" : [ 1.0 ]
								}

							}
, 							{
								"absolutepath" : "Macintosh HD:/Users/CHI/Documents/User Loops/ZEN_AMBIENT/AMI_SOUNDS_&_FX/AM1_TANKDRUMS/TankDrum_Small_Open_Hits/AM1_Eb4_TankDrum_Small_Open.wav",
								"filename" : "AM1_Eb4_TankDrum_Small_Open.wav",
								"filekind" : "audiofile",
								"loop" : 0,
								"content_state" : 								{
									"originallength" : [ 0.0, "ticks" ],
									"originallengthms" : [ 0.0 ],
									"play" : [ 0 ],
									"mode" : [ "basic" ],
									"originaltempo" : [ 120.0 ],
									"slurtime" : [ 0.0 ],
									"basictuning" : [ 440 ],
									"speed" : [ 1.0 ],
									"pitchcorrection" : [ 0 ],
									"quality" : [ "basic" ],
									"followglobaltempo" : [ 0 ],
									"pitchshift" : [ 1.0 ],
									"timestretch" : [ 0 ],
									"formantcorrection" : [ 0 ],
									"formant" : [ 1.0 ]
								}

							}
, 							{
								"absolutepath" : "/Users/CHI/Documents/User Loops/ZEN_AMBIENT/AMI_SOUNDS_&_FX/AM1_TANKDRUMS/TankDrum_Muted_Hits/AM1_D3_TankDrum_Muted.wav",
								"filename" : "AM1_D3_TankDrum_Muted.wav",
								"filekind" : "audiofile",
								"loop" : 0,
								"content_state" : 								{
									"originallength" : [ 0.0, "ticks" ],
									"originallengthms" : [ 0.0 ],
									"play" : [ 0 ],
									"mode" : [ "basic" ],
									"originaltempo" : [ 120.0 ],
									"slurtime" : [ 0.0 ],
									"basictuning" : [ 440 ],
									"speed" : [ 1.0 ],
									"pitchcorrection" : [ 0 ],
									"quality" : [ "basic" ],
									"followglobaltempo" : [ 0 ],
									"pitchshift" : [ 1.0 ],
									"timestretch" : [ 0 ],
									"formantcorrection" : [ 0 ],
									"formant" : [ 1.0 ]
								}

							}
, 							{
								"absolutepath" : "/Users/CHI/Documents/User Loops/ZEN_AMBIENT/AMI_SOUNDS_&_FX/AM1_TANKDRUMS/TankDrum_Muted_Hits/AM1_C3_TankDrum_Muted.wav",
								"filename" : "AM1_C3_TankDrum_Muted.wav",
								"filekind" : "audiofile",
								"loop" : 0,
								"content_state" : 								{
									"originallength" : [ 0.0, "ticks" ],
									"originallengthms" : [ 0.0 ],
									"play" : [ 0 ],
									"mode" : [ "basic" ],
									"originaltempo" : [ 120.0 ],
									"slurtime" : [ 0.0 ],
									"basictuning" : [ 440 ],
									"speed" : [ 1.0 ],
									"pitchcorrection" : [ 0 ],
									"quality" : [ "basic" ],
									"followglobaltempo" : [ 0 ],
									"pitchshift" : [ 1.0 ],
									"timestretch" : [ 0 ],
									"formantcorrection" : [ 0 ],
									"formant" : [ 1.0 ]
								}

							}
, 							{
								"absolutepath" : "/Users/CHI/Documents/User Loops/ZEN_AMBIENT/AMI_SOUNDS_&_FX/AM1_TANKDRUMS/TankDrum_Muted_Hits/AM1_Bb3_TankDrum_Muted.wav",
								"filename" : "AM1_Bb3_TankDrum_Muted.wav",
								"filekind" : "audiofile",
								"loop" : 0,
								"content_state" : 								{
									"originallength" : [ 0.0, "ticks" ],
									"originallengthms" : [ 0.0 ],
									"play" : [ 0 ],
									"mode" : [ "basic" ],
									"originaltempo" : [ 120.0 ],
									"slurtime" : [ 0.0 ],
									"basictuning" : [ 440 ],
									"speed" : [ 1.0 ],
									"pitchcorrection" : [ 0 ],
									"quality" : [ "basic" ],
									"followglobaltempo" : [ 0 ],
									"pitchshift" : [ 1.0 ],
									"timestretch" : [ 0 ],
									"formantcorrection" : [ 0 ],
									"formant" : [ 1.0 ]
								}

							}
, 							{
								"absolutepath" : "/Users/CHI/Documents/User Loops/ZEN_AMBIENT/AMI_SOUNDS_&_FX/AM1_TANKDRUMS/TankDrum_Muted_Hits/AM1_Bb2_TankDrum_Muted.wav",
								"filename" : "AM1_Bb2_TankDrum_Muted.wav",
								"filekind" : "audiofile",
								"loop" : 0,
								"content_state" : 								{
									"originallength" : [ 0.0, "ticks" ],
									"originallengthms" : [ 0.0 ],
									"play" : [ 0 ],
									"mode" : [ "basic" ],
									"originaltempo" : [ 120.0 ],
									"slurtime" : [ 0.0 ],
									"basictuning" : [ 440 ],
									"speed" : [ 1.0 ],
									"pitchcorrection" : [ 0 ],
									"quality" : [ "basic" ],
									"followglobaltempo" : [ 0 ],
									"pitchshift" : [ 1.0 ],
									"timestretch" : [ 0 ],
									"formantcorrection" : [ 0 ],
									"formant" : [ 1.0 ]
								}

							}
 ]
					}
,
					"id" : "obj-22",
					"maxclass" : "playlist~",
					"numinlets" : 1,
					"numoutlets" : 5,
					"outlettype" : [ "signal", "signal", "signal", "", "dictionary" ],
					"patching_rect" : [ 373.0, 708.5, 154.0, 194.0 ]
				}

			}
, 			{
				"box" : 				{
					"clipheight" : 24.5,
					"data" : 					{
						"clips" : [ 							{
								"absolutepath" : "/Users/CHI/Documents/User Loops/Organic Electronica - Wav/melodic shots/chord shots/oe_chst_musicbox_Em.wav",
								"filename" : "oe_chst_musicbox_Em.wav",
								"filekind" : "audiofile",
								"loop" : 0,
								"content_state" : 								{
									"originallength" : [ 0.0, "ticks" ],
									"originallengthms" : [ 0.0 ],
									"play" : [ 0 ],
									"mode" : [ "basic" ],
									"originaltempo" : [ 120.0 ],
									"slurtime" : [ 0.0 ],
									"basictuning" : [ 440 ],
									"speed" : [ 1.0 ],
									"pitchcorrection" : [ 0 ],
									"quality" : [ "basic" ],
									"followglobaltempo" : [ 0 ],
									"pitchshift" : [ 1.0 ],
									"timestretch" : [ 0 ],
									"formantcorrection" : [ 0 ],
									"formant" : [ 1.0 ]
								}

							}
, 							{
								"absolutepath" : "/Users/CHI/Documents/User Loops/Organic Electronica - Wav/melodic shots/chord shots/oe_chst_musicbox_G.wav",
								"filename" : "oe_chst_musicbox_G.wav",
								"filekind" : "audiofile",
								"loop" : 0,
								"content_state" : 								{
									"originallength" : [ 0.0, "ticks" ],
									"originallengthms" : [ 0.0 ],
									"play" : [ 0 ],
									"mode" : [ "basic" ],
									"originaltempo" : [ 120.0 ],
									"slurtime" : [ 0.0 ],
									"basictuning" : [ 440 ],
									"speed" : [ 1.0 ],
									"pitchcorrection" : [ 0 ],
									"quality" : [ "basic" ],
									"followglobaltempo" : [ 0 ],
									"pitchshift" : [ 1.0 ],
									"timestretch" : [ 0 ],
									"formantcorrection" : [ 0 ],
									"formant" : [ 1.0 ]
								}

							}
, 							{
								"absolutepath" : "/Users/CHI/Documents/User Loops/Organic Electronica - Wav/melodic shots/chord shots/oe_chst_musicbox3_D.wav",
								"filename" : "oe_chst_musicbox3_D.wav",
								"filekind" : "audiofile",
								"loop" : 0,
								"content_state" : 								{
									"originallength" : [ 0.0, "ticks" ],
									"originallengthms" : [ 0.0 ],
									"play" : [ 0 ],
									"mode" : [ "basic" ],
									"originaltempo" : [ 120.0 ],
									"slurtime" : [ 0.0 ],
									"basictuning" : [ 440 ],
									"speed" : [ 1.0 ],
									"pitchcorrection" : [ 0 ],
									"quality" : [ "basic" ],
									"followglobaltempo" : [ 0 ],
									"pitchshift" : [ 1.0 ],
									"timestretch" : [ 0 ],
									"formantcorrection" : [ 0 ],
									"formant" : [ 1.0 ]
								}

							}
, 							{
								"absolutepath" : "/Users/CHI/Documents/User Loops/Organic Electronica - Wav/melodic shots/chord shots/oe_chst_musicbox2_D.wav",
								"filename" : "oe_chst_musicbox2_D.wav",
								"filekind" : "audiofile",
								"loop" : 0,
								"content_state" : 								{
									"originallength" : [ 0.0, "ticks" ],
									"originallengthms" : [ 0.0 ],
									"play" : [ 0 ],
									"mode" : [ "basic" ],
									"originaltempo" : [ 120.0 ],
									"slurtime" : [ 0.0 ],
									"basictuning" : [ 440 ],
									"speed" : [ 1.0 ],
									"pitchcorrection" : [ 0 ],
									"quality" : [ "basic" ],
									"followglobaltempo" : [ 0 ],
									"pitchshift" : [ 1.0 ],
									"timestretch" : [ 0 ],
									"formantcorrection" : [ 0 ],
									"formant" : [ 1.0 ]
								}

							}
, 							{
								"absolutepath" : "/Users/CHI/Documents/User Loops/Organic Electronica - Wav/melodic shots/chord shots/oe_chst_musicbox1_D.wav",
								"filename" : "oe_chst_musicbox1_D.wav",
								"filekind" : "audiofile",
								"loop" : 0,
								"content_state" : 								{
									"originallength" : [ 0.0, "ticks" ],
									"originallengthms" : [ 0.0 ],
									"play" : [ 0 ],
									"mode" : [ "basic" ],
									"originaltempo" : [ 120.0 ],
									"slurtime" : [ 0.0 ],
									"basictuning" : [ 440 ],
									"speed" : [ 1.0 ],
									"pitchcorrection" : [ 0 ],
									"quality" : [ "basic" ],
									"followglobaltempo" : [ 0 ],
									"pitchshift" : [ 1.0 ],
									"timestretch" : [ 0 ],
									"formantcorrection" : [ 0 ],
									"formant" : [ 1.0 ]
								}

							}
, 							{
								"absolutepath" : "/Users/CHI/Documents/User Loops/Organic Electronica - Wav/melodic shots/chord shots/oe_chst_musicbox_C#m.wav",
								"filename" : "oe_chst_musicbox_C#m.wav",
								"filekind" : "audiofile",
								"loop" : 0,
								"content_state" : 								{
									"originallength" : [ 0.0, "ticks" ],
									"originallengthms" : [ 0.0 ],
									"play" : [ 0 ],
									"mode" : [ "basic" ],
									"originaltempo" : [ 120.0 ],
									"slurtime" : [ 0.0 ],
									"basictuning" : [ 440 ],
									"speed" : [ 1.0 ],
									"pitchcorrection" : [ 0 ],
									"quality" : [ "basic" ],
									"followglobaltempo" : [ 0 ],
									"pitchshift" : [ 1.0 ],
									"timestretch" : [ 0 ],
									"formantcorrection" : [ 0 ],
									"formant" : [ 1.0 ]
								}

							}
 ]
					}
,
					"id" : "obj-12",
					"maxclass" : "playlist~",
					"numinlets" : 1,
					"numoutlets" : 5,
					"outlettype" : [ "signal", "signal", "signal", "", "dictionary" ],
					"patching_rect" : [ 47.0, 738.5, 151.75, 153.0 ]
				}

			}
, 			{
				"box" : 				{
					"id" : "obj-138",
					"linecount" : 2,
					"maxclass" : "comment",
					"numinlets" : 1,
					"numoutlets" : 0,
					"patching_rect" : [ 231.08331298828125, 121.5, 74.0, 33.0 ],
					"text" : "change\ncolors"
				}

			}
, 			{
				"box" : 				{
					"id" : "obj-137",
					"linecount" : 2,
					"maxclass" : "comment",
					"numinlets" : 1,
					"numoutlets" : 0,
					"patching_rect" : [ 431.5, 358.0, 74.0, 33.0 ],
					"text" : "change\ncolors"
				}

			}
, 			{
				"box" : 				{
					"id" : "obj-130",
					"maxclass" : "message",
					"numinlets" : 2,
					"numoutlets" : 1,
					"outlettype" : [ "" ],
					"patching_rect" : [ 31.0, 427.0, 41.0, 22.0 ],
					"text" : "light 0"
				}

			}
, 			{
				"box" : 				{
					"id" : "obj-125",
					"maxclass" : "newobj",
					"numinlets" : 2,
					"numoutlets" : 2,
					"outlettype" : [ "bang", "" ],
					"patching_rect" : [ 31.0, 397.0, 34.0, 22.0 ],
					"text" : "sel 0"
				}

			}
, 			{
				"box" : 				{
					"id" : "obj-122",
					"maxclass" : "newobj",
					"numinlets" : 2,
					"numoutlets" : 1,
					"outlettype" : [ "int" ],
					"patching_rect" : [ 251.5, 334.0, 29.5, 22.0 ],
					"text" : "i"
				}

			}
, 			{
				"box" : 				{
					"disabled" : [ 0, 0, 0, 0 ],
					"id" : "obj-121",
					"itemtype" : 0,
					"maxclass" : "radiogroup",
					"numinlets" : 1,
					"numoutlets" : 1,
					"outlettype" : [ "" ],
					"parameter_enable" : 0,
					"patching_rect" : [ 409.0, 327.0, 20.5, 66.0 ],
					"size" : 4,
					"value" : 0
				}

			}
, 			{
				"box" : 				{
					"id" : "obj-120",
					"maxclass" : "newobj",
					"numinlets" : 3,
					"numoutlets" : 1,
					"outlettype" : [ "" ],
					"patching_rect" : [ 282.0, 401.0, 121.0, 22.0 ],
					"text" : "pak light 0. 0"
				}

			}
, 			{
				"box" : 				{
					"id" : "obj-118",
					"maxclass" : "slider",
					"numinlets" : 1,
					"numoutlets" : 1,
					"outlettype" : [ "" ],
					"parameter_enable" : 0,
					"patching_rect" : [ 293.08331298828125, 161.0, 20.0, 75.0 ],
					"size" : 1000.0
				}

			}
, 			{
				"box" : 				{
					"id" : "obj-117",
					"maxclass" : "slider",
					"numinlets" : 1,
					"numoutlets" : 1,
					"outlettype" : [ "" ],
					"parameter_enable" : 0,
					"patching_rect" : [ 261.08331298828125, 161.0, 20.0, 75.0 ],
					"size" : 1000.0
				}

			}
, 			{
				"box" : 				{
					"disabled" : [ 0, 0, 0, 0 ],
					"id" : "obj-114",
					"itemtype" : 0,
					"maxclass" : "radiogroup",
					"numinlets" : 1,
					"numoutlets" : 1,
					"outlettype" : [ "" ],
					"parameter_enable" : 0,
					"patching_rect" : [ 228.1666259765625, 170.5, 20.5, 66.0 ],
					"size" : 4,
					"value" : 2
				}

			}
, 			{
				"box" : 				{
					"floatoutput" : 1,
					"id" : "obj-106",
					"maxclass" : "dial",
					"numinlets" : 1,
					"numoutlets" : 1,
					"outlettype" : [ "float" ],
					"parameter_enable" : 0,
					"patching_rect" : [ 181.08331298828125, 196.5, 40.0, 40.0 ],
					"size" : 100.0
				}

			}
, 			{
				"box" : 				{
					"id" : "obj-70",
					"maxclass" : "newobj",
					"numinlets" : 5,
					"numoutlets" : 5,
					"outlettype" : [ "", "", "", "", "" ],
					"patching_rect" : [ 133.75, 592.0, 76.0, 22.0 ],
					"text" : "route 1 2 3 4"
				}

			}
, 			{
				"box" : 				{
					"id" : "obj-25",
					"maxclass" : "number",
					"numinlets" : 1,
					"numoutlets" : 2,
					"outlettype" : [ "", "bang" ],
					"parameter_enable" : 0,
					"patching_rect" : [ 133.75, 563.5, 50.0, 22.0 ]
				}

			}
, 			{
				"box" : 				{
					"id" : "obj-21",
					"maxclass" : "newobj",
					"numinlets" : 1,
					"numoutlets" : 2,
					"outlettype" : [ "", "int" ],
					"patching_rect" : [ 89.75, 528.5, 63.0, 22.0 ],
					"text" : "unpack s i"
				}

			}
, 			{
				"box" : 				{
					"id" : "obj-160",
					"maxclass" : "newobj",
					"numinlets" : 1,
					"numoutlets" : 1,
					"outlettype" : [ "" ],
					"patching_rect" : [ 89.75, 500.0, 47.0, 22.0 ],
					"text" : "dict.iter"
				}

			}
, 			{
				"box" : 				{
					"id" : "obj-136",
					"maxclass" : "message",
					"numinlets" : 2,
					"numoutlets" : 1,
					"outlettype" : [ "" ],
					"patching_rect" : [ 333.0, 334.0, 39.0, 22.0 ],
					"text" : "$1 33"
				}

			}
, 			{
				"box" : 				{
					"id" : "obj-134",
					"maxclass" : "newobj",
					"numinlets" : 3,
					"numoutlets" : 2,
					"outlettype" : [ "", "bang" ],
					"patching_rect" : [ 333.0, 363.5, 41.0, 22.0 ],
					"text" : "line 0."
				}

			}
, 			{
				"box" : 				{
					"id" : "obj-129",
					"maxclass" : "newobj",
					"numinlets" : 2,
					"numoutlets" : 2,
					"outlettype" : [ "", "" ],
					"patching_rect" : [ 333.0, 302.0, 89.0, 22.0 ],
					"text" : "zl.lookup 0 100"
				}

			}
, 			{
				"box" : 				{
					"id" : "obj-128",
					"maxclass" : "number",
					"numinlets" : 1,
					"numoutlets" : 2,
					"outlettype" : [ "", "bang" ],
					"parameter_enable" : 0,
					"patching_rect" : [ 333.0, 272.0, 50.0, 22.0 ]
				}

			}
, 			{
				"box" : 				{
					"id" : "obj-126",
					"maxclass" : "toggle",
					"numinlets" : 1,
					"numoutlets" : 1,
					"outlettype" : [ "int" ],
					"parameter_enable" : 0,
					"patching_rect" : [ 333.0, 161.0, 24.0, 24.0 ]
				}

			}
, 			{
				"box" : 				{
					"id" : "obj-124",
					"maxclass" : "newobj",
					"numinlets" : 2,
					"numoutlets" : 1,
					"outlettype" : [ "bang" ],
					"patching_rect" : [ 333.0, 214.0, 63.0, 22.0 ],
					"text" : "metro 300"
				}

			}
, 			{
				"box" : 				{
					"id" : "obj-123",
					"maxclass" : "newobj",
					"numinlets" : 5,
					"numoutlets" : 4,
					"outlettype" : [ "int", "", "", "int" ],
					"patching_rect" : [ 333.0, 241.0, 69.0, 22.0 ],
					"text" : "counter 0 1"
				}

			}
, 			{
				"box" : 				{
					"bgcolor" : [ 0.274509803921569, 0.274509803921569, 0.274509803921569, 1.0 ],
					"bubbleusescolors" : 1,
					"id" : "obj-15",
					"linecount" : 5,
					"maxclass" : "comment",
					"numinlets" : 1,
					"numoutlets" : 0,
					"patching_rect" : [ 728.0, 427.0, 394.5, 77.0 ],
					"text" : "【 light 】改變網頁亮度、顏色\n\n參數：\n1. percentage [ 一定要 ]（0~100，幾%的亮度）\n2. colorInd [ 預設 0 ]（0~3 ，代表顏色四種顏色的index）",
					"textcolor" : [ 0.996078431606293, 0.996078431606293, 0.996078431606293, 1.0 ]
				}

			}
, 			{
				"box" : 				{
					"bgcolor" : [ 0.274509803921569, 0.274509803921569, 0.274509803921569, 0.0 ],
					"bubbleusescolors" : 1,
					"fontsize" : 14.0,
					"id" : "obj-14",
					"maxclass" : "comment",
					"numinlets" : 1,
					"numoutlets" : 0,
					"patching_rect" : [ 728.0, 290.0, 183.0, 26.0 ],
					"text" : "FUNCTION 功能、參數",
					"textcolor" : [ 0.0, 0.0, 0.0, 1.0 ]
				}

			}
, 			{
				"box" : 				{
					"bgcolor" : [ 0.274509803921569, 0.274509803921569, 0.274509803921569, 1.0 ],
					"bubbleusescolors" : 1,
					"id" : "obj-9",
					"linecount" : 7,
					"maxclass" : "comment",
					"numinlets" : 1,
					"numoutlets" : 0,
					"patching_rect" : [ 728.0, 315.0, 394.5, 104.0 ],
					"text" : "【 blink 】讓網頁閃爍\n\n參數：\n1. percentage [ 一定要 ]（0~100，幾%的手機一起閃）\n2. colorInd [ 預設 0 ]（0~3 ，代表顏色四種顏色的index）\n3. interval [ 預設 0 ]（0 代表只閃一次，單位ms）\n4. time_difference [ 預設 0 ]（代表同時閃的手機要不要有些微的時間差）",
					"textcolor" : [ 0.996078431606293, 0.996078431606293, 0.996078431606293, 1.0 ]
				}

			}
, 			{
				"box" : 				{
					"id" : "obj-57",
					"maxclass" : "newobj",
					"numinlets" : 4,
					"numoutlets" : 1,
					"outlettype" : [ "" ],
					"patching_rect" : [ 111.5, 437.0, 158.5, 22.0 ],
					"text" : "switch 3"
				}

			}
, 			{
				"box" : 				{
					"fontname" : "Arial",
					"fontsize" : 13.0,
					"id" : "obj-55",
					"maxclass" : "comment",
					"numinlets" : 1,
					"numoutlets" : 0,
					"patching_rect" : [ 103.5, 375.0, 88.0, 21.0 ],
					"presentation" : 1,
					"presentation_rect" : [ 103.5, 375.0, 88.0, 21.0 ],
					"text" : "Manual",
					"textcolor" : [ 0.80392199754715, 0.898038983345032, 0.909803986549377, 1.0 ]
				}

			}
, 			{
				"box" : 				{
					"fontname" : "Arial",
					"fontsize" : 13.0,
					"id" : "obj-63",
					"maxclass" : "comment",
					"numinlets" : 1,
					"numoutlets" : 0,
					"patching_rect" : [ 103.5, 359.0, 88.0, 21.0 ],
					"presentation" : 1,
					"presentation_rect" : [ 103.5, 359.0, 88.0, 21.0 ],
					"text" : "Drum Pad",
					"textcolor" : [ 0.80392199754715, 0.898038983345032, 0.909803986549377, 1.0 ]
				}

			}
, 			{
				"box" : 				{
					"fontname" : "Arial",
					"fontsize" : 13.0,
					"id" : "obj-64",
					"maxclass" : "comment",
					"numinlets" : 1,
					"numoutlets" : 0,
					"patching_rect" : [ 103.5, 343.0, 87.0, 21.0 ],
					"presentation" : 1,
					"presentation_rect" : [ 103.5, 343.0, 87.0, 21.0 ],
					"text" : "Auto",
					"textcolor" : [ 0.80392199754715, 0.898038983345032, 0.909803986549377, 1.0 ]
				}

			}
, 			{
				"box" : 				{
					"fontname" : "Arial",
					"fontsize" : 13.0,
					"id" : "obj-65",
					"maxclass" : "number",
					"numinlets" : 1,
					"numoutlets" : 2,
					"outlettype" : [ "", "bang" ],
					"parameter_enable" : 0,
					"patching_rect" : [ 111.5, 401.0, 53.0, 23.0 ]
				}

			}
, 			{
				"box" : 				{
					"fontname" : "Arial",
					"fontsize" : 13.0,
					"id" : "obj-56",
					"maxclass" : "comment",
					"numinlets" : 1,
					"numoutlets" : 0,
					"patching_rect" : [ 103.5, 327.0, 87.0, 21.0 ],
					"presentation" : 1,
					"presentation_rect" : [ 103.5, 327.0, 87.0, 21.0 ],
					"text" : "Stop",
					"textcolor" : [ 0.80392199754715, 0.898038983345032, 0.909803986549377, 1.0 ]
				}

			}
, 			{
				"box" : 				{
					"disabled" : [ 0, 0, 0, 0 ],
					"id" : "obj-73",
					"itemtype" : 0,
					"maxclass" : "radiogroup",
					"numinlets" : 1,
					"numoutlets" : 1,
					"outlettype" : [ "" ],
					"parameter_enable" : 0,
					"patching_rect" : [ 85.5, 329.0, 109.5, 66.0 ],
					"presentation" : 1,
					"presentation_rect" : [ 85.5, 329.0, 109.5, 66.0 ],
					"size" : 4,
					"value" : 3
				}

			}
, 			{
				"box" : 				{
					"id" : "obj-7",
					"maxclass" : "textbutton",
					"numinlets" : 1,
					"numoutlets" : 3,
					"outlettype" : [ "", "", "int" ],
					"parameter_enable" : 0,
					"patching_rect" : [ 31.0, 170.5, 53.0, 21.0 ],
					"presentation" : 1,
					"presentation_rect" : [ 170.5, 113.0, 53.0, 21.0 ],
					"text" : "START",
					"texton" : "START"
				}

			}
, 			{
				"box" : 				{
					"id" : "obj-6",
					"maxclass" : "newobj",
					"numinlets" : 1,
					"numoutlets" : 1,
					"outlettype" : [ "bang" ],
					"patching_rect" : [ 31.0, 29.0, 58.0, 22.0 ],
					"text" : "loadbang"
				}

			}
, 			{
				"box" : 				{
					"id" : "obj-32",
					"maxclass" : "newobj",
					"numinlets" : 5,
					"numoutlets" : 1,
					"outlettype" : [ "" ],
					"patching_rect" : [ 158.0, 260.5, 107.0, 22.0 ],
					"text" : "pack blink 100. i i i"
				}

			}
, 			{
				"box" : 				{
					"id" : "obj-4",
					"maxclass" : "newobj",
					"numinlets" : 0,
					"numoutlets" : 4,
					"outlettype" : [ "bang", "", "", "int" ],
					"patcher" : 					{
						"fileversion" : 1,
						"appversion" : 						{
							"major" : 8,
							"minor" : 0,
							"revision" : 3,
							"architecture" : "x64",
							"modernui" : 1
						}
,
						"classnamespace" : "box",
						"rect" : [ 434.0, 79.0, 812.0, 687.0 ],
						"bglocked" : 0,
						"openinpresentation" : 0,
						"default_fontsize" : 12.0,
						"default_fontface" : 0,
						"default_fontname" : "Arial",
						"gridonopen" : 1,
						"gridsize" : [ 15.0, 15.0 ],
						"gridsnaponopen" : 1,
						"objectsnaponopen" : 1,
						"statusbarvisible" : 2,
						"toolbarvisible" : 1,
						"lefttoolbarpinned" : 0,
						"toptoolbarpinned" : 0,
						"righttoolbarpinned" : 0,
						"bottomtoolbarpinned" : 0,
						"toolbars_unpinned_last_save" : 0,
						"tallnewobj" : 0,
						"boxanimatetime" : 200,
						"enablehscroll" : 1,
						"enablevscroll" : 1,
						"devicewidth" : 0.0,
						"description" : "",
						"digest" : "",
						"tags" : "",
						"style" : "",
						"subpatcher_template" : "",
						"boxes" : [ 							{
								"box" : 								{
									"id" : "obj-16",
									"maxclass" : "number",
									"numinlets" : 1,
									"numoutlets" : 2,
									"outlettype" : [ "", "bang" ],
									"parameter_enable" : 0,
									"patching_rect" : [ 291.0, 632.0, 50.0, 22.0 ]
								}

							}
, 							{
								"box" : 								{
									"id" : "obj-13",
									"maxclass" : "newobj",
									"numinlets" : 3,
									"numoutlets" : 1,
									"outlettype" : [ "" ],
									"patching_rect" : [ 291.0, 602.0, 60.0, 22.0 ],
									"text" : "clip 0 100"
								}

							}
, 							{
								"box" : 								{
									"id" : "obj-9",
									"maxclass" : "newobj",
									"numinlets" : 2,
									"numoutlets" : 1,
									"outlettype" : [ "bang" ],
									"patching_rect" : [ 291.0, 538.0, 63.0, 22.0 ],
									"text" : "metro 100"
								}

							}
, 							{
								"box" : 								{
									"id" : "obj-8",
									"maxclass" : "newobj",
									"numinlets" : 5,
									"numoutlets" : 4,
									"outlettype" : [ "int", "", "", "int" ],
									"patching_rect" : [ 291.0, 573.0, 61.0, 22.0 ],
									"text" : "counter"
								}

							}
, 							{
								"box" : 								{
									"id" : "obj-7",
									"maxclass" : "message",
									"numinlets" : 2,
									"numoutlets" : 1,
									"outlettype" : [ "" ],
									"patching_rect" : [ 195.0, 326.0, 29.5, 22.0 ],
									"text" : "0"
								}

							}
, 							{
								"box" : 								{
									"id" : "obj-6",
									"maxclass" : "button",
									"numinlets" : 1,
									"numoutlets" : 1,
									"outlettype" : [ "bang" ],
									"parameter_enable" : 0,
									"patching_rect" : [ 95.0, 510.0, 24.0, 24.0 ]
								}

							}
, 							{
								"box" : 								{
									"id" : "obj-4",
									"maxclass" : "number",
									"numinlets" : 1,
									"numoutlets" : 2,
									"outlettype" : [ "", "bang" ],
									"parameter_enable" : 0,
									"patching_rect" : [ 505.0, 306.0, 50.0, 22.0 ]
								}

							}
, 							{
								"box" : 								{
									"id" : "obj-27",
									"maxclass" : "newobj",
									"numinlets" : 1,
									"numoutlets" : 1,
									"outlettype" : [ "" ],
									"patching_rect" : [ 51.0, 167.0, 54.0, 22.0 ],
									"text" : "deferlow"
								}

							}
, 							{
								"box" : 								{
									"comment" : "hit",
									"id" : "obj-26",
									"index" : 4,
									"maxclass" : "outlet",
									"numinlets" : 1,
									"numoutlets" : 0,
									"patching_rect" : [ 458.0, 392.0, 30.0, 30.0 ]
								}

							}
, 							{
								"box" : 								{
									"id" : "obj-25",
									"maxclass" : "newobj",
									"numinlets" : 2,
									"numoutlets" : 1,
									"outlettype" : [ "int" ],
									"patching_rect" : [ 458.0, 236.0, 29.5, 22.0 ],
									"text" : "- 36"
								}

							}
, 							{
								"box" : 								{
									"id" : "obj-149",
									"maxclass" : "newobj",
									"numinlets" : 2,
									"numoutlets" : 1,
									"outlettype" : [ "int" ],
									"patching_rect" : [ 226.5, 479.0, 39.0, 22.0 ],
									"text" : "> 150"
								}

							}
, 							{
								"box" : 								{
									"id" : "obj-148",
									"maxclass" : "number",
									"numinlets" : 1,
									"numoutlets" : 2,
									"outlettype" : [ "", "bang" ],
									"parameter_enable" : 0,
									"patching_rect" : [ 226.5, 440.0, 50.0, 22.0 ]
								}

							}
, 							{
								"box" : 								{
									"id" : "obj-146",
									"maxclass" : "message",
									"numinlets" : 2,
									"numoutlets" : 1,
									"outlettype" : [ "" ],
									"patching_rect" : [ 271.666656494140625, 479.0, 29.5, 22.0 ],
									"text" : "0"
								}

							}
, 							{
								"box" : 								{
									"id" : "obj-138",
									"maxclass" : "newobj",
									"numinlets" : 1,
									"numoutlets" : 3,
									"outlettype" : [ "", "int", "int" ],
									"patching_rect" : [ 226.5, 402.0, 48.0, 22.0 ],
									"text" : "change"
								}

							}
, 							{
								"box" : 								{
									"id" : "obj-135",
									"maxclass" : "toggle",
									"numinlets" : 1,
									"numoutlets" : 1,
									"outlettype" : [ "int" ],
									"parameter_enable" : 0,
									"patching_rect" : [ 226.5, 511.0, 24.0, 24.0 ]
								}

							}
, 							{
								"box" : 								{
									"comment" : "",
									"id" : "obj-133",
									"index" : 2,
									"maxclass" : "outlet",
									"numinlets" : 1,
									"numoutlets" : 0,
									"patching_rect" : [ 226.5, 653.0, 30.0, 30.0 ]
								}

							}
, 							{
								"box" : 								{
									"id" : "obj-130",
									"maxclass" : "newobj",
									"numinlets" : 2,
									"numoutlets" : 1,
									"outlettype" : [ "" ],
									"patching_rect" : [ 226.5, 326.0, 67.0, 22.0 ],
									"text" : "speedlim 1"
								}

							}
, 							{
								"box" : 								{
									"id" : "obj-122",
									"maxclass" : "newobj",
									"numinlets" : 1,
									"numoutlets" : 1,
									"outlettype" : [ "" ],
									"patching_rect" : [ 50.0, 448.0, 124.0, 22.0 ],
									"text" : "if $i1 < 150 then bang"
								}

							}
, 							{
								"box" : 								{
									"id" : "obj-117",
									"maxclass" : "button",
									"numinlets" : 1,
									"numoutlets" : 1,
									"outlettype" : [ "bang" ],
									"parameter_enable" : 0,
									"patching_rect" : [ 79.0, 323.0, 24.0, 24.0 ]
								}

							}
, 							{
								"box" : 								{
									"id" : "obj-115",
									"maxclass" : "newobj",
									"numinlets" : 1,
									"numoutlets" : 3,
									"outlettype" : [ "", "int", "int" ],
									"patching_rect" : [ 50.0, 278.0, 48.0, 22.0 ],
									"text" : "change"
								}

							}
, 							{
								"box" : 								{
									"id" : "obj-103",
									"maxclass" : "button",
									"numinlets" : 1,
									"numoutlets" : 1,
									"outlettype" : [ "bang" ],
									"parameter_enable" : 0,
									"patching_rect" : [ 50.0, 323.0, 24.0, 24.0 ]
								}

							}
, 							{
								"box" : 								{
									"id" : "obj-100",
									"maxclass" : "number",
									"numinlets" : 1,
									"numoutlets" : 2,
									"outlettype" : [ "", "bang" ],
									"parameter_enable" : 0,
									"patching_rect" : [ 50.0, 408.0, 50.0, 22.0 ]
								}

							}
, 							{
								"box" : 								{
									"id" : "obj-97",
									"maxclass" : "newobj",
									"numinlets" : 2,
									"numoutlets" : 2,
									"outlettype" : [ "float", "" ],
									"patching_rect" : [ 50.0, 367.0, 35.0, 22.0 ],
									"text" : "timer"
								}

							}
, 							{
								"box" : 								{
									"id" : "obj-71",
									"maxclass" : "newobj",
									"numinlets" : 5,
									"numoutlets" : 4,
									"outlettype" : [ "int", "", "", "int" ],
									"patching_rect" : [ 226.5, 367.0, 61.0, 22.0 ],
									"text" : "counter"
								}

							}
, 							{
								"box" : 								{
									"id" : "obj-5",
									"maxclass" : "number",
									"numinlets" : 1,
									"numoutlets" : 2,
									"outlettype" : [ "", "bang" ],
									"parameter_enable" : 0,
									"patching_rect" : [ 348.0, 392.0, 50.0, 22.0 ]
								}

							}
, 							{
								"box" : 								{
									"id" : "obj-3",
									"maxclass" : "newobj",
									"numinlets" : 6,
									"numoutlets" : 1,
									"outlettype" : [ "" ],
									"patching_rect" : [ 348.0, 326.0, 103.0, 22.0 ],
									"text" : "scale 0 100 0 100"
								}

							}
, 							{
								"box" : 								{
									"comment" : "percentage",
									"id" : "obj-57",
									"index" : 3,
									"maxclass" : "outlet",
									"numinlets" : 1,
									"numoutlets" : 0,
									"patching_rect" : [ 348.0, 427.0, 30.0, 30.0 ]
								}

							}
, 							{
								"box" : 								{
									"comment" : "hit",
									"id" : "obj-171",
									"index" : 1,
									"maxclass" : "outlet",
									"numinlets" : 1,
									"numoutlets" : 0,
									"patching_rect" : [ 50.0, 483.0, 30.0, 30.0 ]
								}

							}
, 							{
								"box" : 								{
									"id" : "obj-55",
									"maxclass" : "comment",
									"numinlets" : 1,
									"numoutlets" : 0,
									"patching_rect" : [ 388.0, 238.0, 45.833343505859375, 20.0 ],
									"text" : "radius"
								}

							}
, 							{
								"box" : 								{
									"id" : "obj-53",
									"maxclass" : "comment",
									"numinlets" : 1,
									"numoutlets" : 0,
									"patching_rect" : [ 50.0, 256.0, 53.0, 20.0 ],
									"text" : "velocity"
								}

							}
, 							{
								"box" : 								{
									"fontname" : "Arial",
									"fontsize" : 13.0,
									"id" : "obj-29",
									"linecount" : 2,
									"maxclass" : "comment",
									"numinlets" : 1,
									"numoutlets" : 0,
									"patching_rect" : [ 442.5, 93.0, 57.5, 36.0 ],
									"text" : "MIDI \nChannel",
									"textcolor" : [ 0.50196099281311, 0.50196099281311, 0.50196099281311, 1.0 ]
								}

							}
, 							{
								"box" : 								{
									"fontname" : "Arial",
									"fontsize" : 13.0,
									"id" : "obj-24",
									"linecount" : 2,
									"maxclass" : "comment",
									"numinlets" : 1,
									"numoutlets" : 0,
									"patching_rect" : [ 240.166656494140625, 286.0, 61.0, 36.0 ],
									"text" : "Control \nChange",
									"textcolor" : [ 0.50196099281311, 0.50196099281311, 0.50196099281311, 1.0 ]
								}

							}
, 							{
								"box" : 								{
									"fontname" : "Arial",
									"fontsize" : 13.0,
									"id" : "obj-10",
									"linecount" : 2,
									"maxclass" : "comment",
									"numinlets" : 1,
									"numoutlets" : 0,
									"patching_rect" : [ 146.0, 286.0, 53.0, 36.0 ],
									"text" : "Note \nOn/Off",
									"textcolor" : [ 0.50196099281311, 0.50196099281311, 0.50196099281311, 1.0 ]
								}

							}
, 							{
								"box" : 								{
									"fontname" : "Arial",
									"fontsize" : 13.0,
									"id" : "obj-11",
									"maxclass" : "newobj",
									"numinlets" : 1,
									"numoutlets" : 2,
									"outlettype" : [ "int", "int" ],
									"patching_rect" : [ 51.0, 106.0, 65.0, 23.0 ],
									"text" : "unpack i i"
								}

							}
, 							{
								"box" : 								{
									"fontname" : "Arial",
									"fontsize" : 13.0,
									"format" : 4,
									"id" : "obj-12",
									"maxclass" : "number",
									"numinlets" : 1,
									"numoutlets" : 2,
									"outlettype" : [ "", "bang" ],
									"parameter_enable" : 0,
									"patching_rect" : [ 458.0, 139.0, 38.0, 23.0 ],
									"triangle" : 0
								}

							}
, 							{
								"box" : 								{
									"fontname" : "Arial",
									"fontsize" : 13.0,
									"id" : "obj-14",
									"maxclass" : "number",
									"numinlets" : 1,
									"numoutlets" : 2,
									"outlettype" : [ "", "bang" ],
									"parameter_enable" : 0,
									"patching_rect" : [ 50.0, 227.0, 38.0, 23.0 ]
								}

							}
, 							{
								"box" : 								{
									"fontname" : "Arial",
									"fontsize" : 13.0,
									"id" : "obj-18",
									"maxclass" : "number",
									"numinlets" : 1,
									"numoutlets" : 2,
									"outlettype" : [ "", "bang" ],
									"parameter_enable" : 0,
									"patching_rect" : [ 348.0, 235.0, 38.0, 23.0 ]
								}

							}
, 							{
								"box" : 								{
									"fontname" : "Arial",
									"fontsize" : 13.0,
									"id" : "obj-19",
									"maxclass" : "number",
									"numinlets" : 1,
									"numoutlets" : 2,
									"outlettype" : [ "", "bang" ],
									"parameter_enable" : 0,
									"patching_rect" : [ 226.5, 235.0, 38.0, 23.0 ]
								}

							}
, 							{
								"box" : 								{
									"fontname" : "Arial",
									"fontsize" : 13.0,
									"id" : "obj-20",
									"maxclass" : "newobj",
									"numinlets" : 1,
									"numoutlets" : 2,
									"outlettype" : [ "int", "int" ],
									"patching_rect" : [ 226.5, 159.0, 65.0, 23.0 ],
									"text" : "unpack i i"
								}

							}
, 							{
								"box" : 								{
									"fontname" : "Arial",
									"fontsize" : 13.0,
									"id" : "obj-23",
									"maxclass" : "newobj",
									"numinlets" : 1,
									"numoutlets" : 8,
									"outlettype" : [ "", "", "", "int", "int", "", "int", "" ],
									"patching_rect" : [ 51.0, 64.0, 449.0, 23.0 ],
									"text" : "midiparse"
								}

							}
, 							{
								"box" : 								{
									"id" : "obj-49",
									"maxclass" : "button",
									"numinlets" : 1,
									"numoutlets" : 1,
									"outlettype" : [ "bang" ],
									"parameter_enable" : 0,
									"patching_rect" : [ 226.5, 264.0, 20.0, 20.0 ]
								}

							}
, 							{
								"box" : 								{
									"id" : "obj-1",
									"maxclass" : "newobj",
									"numinlets" : 1,
									"numoutlets" : 1,
									"outlettype" : [ "int" ],
									"patching_rect" : [ 51.0, 29.0, 40.0, 22.0 ],
									"text" : "midiin"
								}

							}
 ],
						"lines" : [ 							{
								"patchline" : 								{
									"destination" : [ "obj-23", 0 ],
									"source" : [ "obj-1", 0 ]
								}

							}
, 							{
								"patchline" : 								{
									"destination" : [ "obj-122", 0 ],
									"source" : [ "obj-100", 0 ]
								}

							}
, 							{
								"patchline" : 								{
									"destination" : [ "obj-97", 0 ],
									"source" : [ "obj-103", 0 ]
								}

							}
, 							{
								"patchline" : 								{
									"destination" : [ "obj-12", 0 ],
									"source" : [ "obj-11", 0 ]
								}

							}
, 							{
								"patchline" : 								{
									"destination" : [ "obj-27", 0 ],
									"source" : [ "obj-11", 1 ]
								}

							}
, 							{
								"patchline" : 								{
									"destination" : [ "obj-103", 0 ],
									"source" : [ "obj-115", 1 ]
								}

							}
, 							{
								"patchline" : 								{
									"destination" : [ "obj-117", 0 ],
									"source" : [ "obj-115", 2 ]
								}

							}
, 							{
								"patchline" : 								{
									"destination" : [ "obj-7", 0 ],
									"order" : 0,
									"source" : [ "obj-117", 0 ]
								}

							}
, 							{
								"patchline" : 								{
									"destination" : [ "obj-97", 1 ],
									"order" : 1,
									"source" : [ "obj-117", 0 ]
								}

							}
, 							{
								"patchline" : 								{
									"destination" : [ "obj-25", 0 ],
									"source" : [ "obj-12", 0 ]
								}

							}
, 							{
								"patchline" : 								{
									"destination" : [ "obj-171", 0 ],
									"source" : [ "obj-122", 0 ]
								}

							}
, 							{
								"patchline" : 								{
									"destination" : [ "obj-16", 0 ],
									"source" : [ "obj-13", 0 ]
								}

							}
, 							{
								"patchline" : 								{
									"destination" : [ "obj-71", 0 ],
									"source" : [ "obj-130", 0 ]
								}

							}
, 							{
								"patchline" : 								{
									"destination" : [ "obj-8", 3 ],
									"order" : 0,
									"source" : [ "obj-135", 0 ]
								}

							}
, 							{
								"patchline" : 								{
									"destination" : [ "obj-9", 0 ],
									"order" : 1,
									"source" : [ "obj-135", 0 ]
								}

							}
, 							{
								"patchline" : 								{
									"destination" : [ "obj-146", 0 ],
									"source" : [ "obj-138", 2 ]
								}

							}
, 							{
								"patchline" : 								{
									"destination" : [ "obj-148", 0 ],
									"source" : [ "obj-138", 0 ]
								}

							}
, 							{
								"patchline" : 								{
									"destination" : [ "obj-115", 0 ],
									"source" : [ "obj-14", 0 ]
								}

							}
, 							{
								"patchline" : 								{
									"destination" : [ "obj-135", 0 ],
									"source" : [ "obj-146", 0 ]
								}

							}
, 							{
								"patchline" : 								{
									"destination" : [ "obj-149", 0 ],
									"source" : [ "obj-148", 0 ]
								}

							}
, 							{
								"patchline" : 								{
									"destination" : [ "obj-135", 0 ],
									"source" : [ "obj-149", 0 ]
								}

							}
, 							{
								"patchline" : 								{
									"destination" : [ "obj-133", 0 ],
									"source" : [ "obj-16", 0 ]
								}

							}
, 							{
								"patchline" : 								{
									"destination" : [ "obj-3", 0 ],
									"source" : [ "obj-18", 0 ]
								}

							}
, 							{
								"patchline" : 								{
									"destination" : [ "obj-49", 0 ],
									"source" : [ "obj-19", 0 ]
								}

							}
, 							{
								"patchline" : 								{
									"destination" : [ "obj-18", 0 ],
									"source" : [ "obj-20", 1 ]
								}

							}
, 							{
								"patchline" : 								{
									"destination" : [ "obj-19", 0 ],
									"source" : [ "obj-20", 0 ]
								}

							}
, 							{
								"patchline" : 								{
									"destination" : [ "obj-11", 0 ],
									"source" : [ "obj-23", 0 ]
								}

							}
, 							{
								"patchline" : 								{
									"destination" : [ "obj-20", 0 ],
									"source" : [ "obj-23", 2 ]
								}

							}
, 							{
								"patchline" : 								{
									"destination" : [ "obj-26", 0 ],
									"order" : 1,
									"source" : [ "obj-25", 0 ]
								}

							}
, 							{
								"patchline" : 								{
									"destination" : [ "obj-4", 0 ],
									"order" : 0,
									"source" : [ "obj-25", 0 ]
								}

							}
, 							{
								"patchline" : 								{
									"destination" : [ "obj-14", 0 ],
									"source" : [ "obj-27", 0 ]
								}

							}
, 							{
								"patchline" : 								{
									"destination" : [ "obj-5", 0 ],
									"source" : [ "obj-3", 0 ]
								}

							}
, 							{
								"patchline" : 								{
									"destination" : [ "obj-130", 0 ],
									"source" : [ "obj-49", 0 ]
								}

							}
, 							{
								"patchline" : 								{
									"destination" : [ "obj-57", 0 ],
									"source" : [ "obj-5", 0 ]
								}

							}
, 							{
								"patchline" : 								{
									"destination" : [ "obj-171", 0 ],
									"source" : [ "obj-6", 0 ]
								}

							}
, 							{
								"patchline" : 								{
									"destination" : [ "obj-71", 3 ],
									"source" : [ "obj-7", 0 ]
								}

							}
, 							{
								"patchline" : 								{
									"destination" : [ "obj-138", 0 ],
									"source" : [ "obj-71", 0 ]
								}

							}
, 							{
								"patchline" : 								{
									"destination" : [ "obj-13", 0 ],
									"source" : [ "obj-8", 0 ]
								}

							}
, 							{
								"patchline" : 								{
									"destination" : [ "obj-8", 0 ],
									"source" : [ "obj-9", 0 ]
								}

							}
, 							{
								"patchline" : 								{
									"destination" : [ "obj-100", 0 ],
									"source" : [ "obj-97", 0 ]
								}

							}
 ],
						"styles" : [ 							{
								"name" : "AudioStatus_Menu",
								"default" : 								{
									"bgfillcolor" : 									{
										"type" : "color",
										"color" : [ 0.294118, 0.313726, 0.337255, 1 ],
										"color1" : [ 0.454902, 0.462745, 0.482353, 0.0 ],
										"color2" : [ 0.290196, 0.309804, 0.301961, 1.0 ],
										"angle" : 270.0,
										"proportion" : 0.39,
										"autogradient" : 0
									}

								}
,
								"parentstyle" : "",
								"multi" : 0
							}
, 							{
								"name" : "BEAP-Audio",
								"default" : 								{
									"color" : [ 0.278431, 0.839216, 1.0, 1.0 ],
									"textcolor" : [ 0.862745, 0.870588, 0.878431, 0.698039 ],
									"textcolor_inverse" : [ 0.862745, 0.870588, 0.878431, 0.698039 ],
									"fontsize" : [ 10.0 ],
									"accentcolor" : [ 0.442178, 0.455072, 0.451475, 1.0 ]
								}
,
								"parentstyle" : "",
								"multi" : 0
							}
, 							{
								"name" : "drab",
								"default" : 								{
									"selectioncolor" : [ 0.815686, 0.858824, 0.34902, 0.25 ]
								}
,
								"parentstyle" : "",
								"multi" : 0
							}
, 							{
								"name" : "ksliderWhite",
								"default" : 								{
									"color" : [ 1.0, 1.0, 1.0, 1.0 ]
								}
,
								"parentstyle" : "",
								"multi" : 0
							}
, 							{
								"name" : "newobjBlue-1",
								"default" : 								{
									"accentcolor" : [ 0.317647, 0.654902, 0.976471, 1.0 ]
								}
,
								"parentstyle" : "",
								"multi" : 0
							}
, 							{
								"name" : "newobjBrown-1",
								"default" : 								{
									"accentcolor" : [ 0.654902, 0.572549, 0.376471, 1.0 ]
								}
,
								"parentstyle" : "",
								"multi" : 0
							}
, 							{
								"name" : "newobjCyan-1",
								"default" : 								{
									"accentcolor" : [ 0.029546, 0.773327, 0.821113, 1.0 ]
								}
,
								"parentstyle" : "",
								"multi" : 0
							}
, 							{
								"name" : "newobjGreen-1",
								"default" : 								{
									"accentcolor" : [ 0.0, 0.533333, 0.168627, 1.0 ]
								}
,
								"parentstyle" : "",
								"multi" : 0
							}
, 							{
								"name" : "newobjMagenta-1",
								"default" : 								{
									"accentcolor" : [ 0.840663, 0.060168, 0.769195, 1.0 ]
								}
,
								"parentstyle" : "",
								"multi" : 0
							}
, 							{
								"name" : "newobjYellow-1",
								"default" : 								{
									"fontsize" : [ 12.059008 ],
									"accentcolor" : [ 0.82517, 0.78181, 0.059545, 1.0 ]
								}
,
								"parentstyle" : "",
								"multi" : 0
							}
, 							{
								"name" : "numberGold-1",
								"default" : 								{
									"accentcolor" : [ 0.764706, 0.592157, 0.101961, 1.0 ]
								}
,
								"parentstyle" : "",
								"multi" : 0
							}
, 							{
								"name" : "rsliderGold",
								"default" : 								{
									"bgcolor" : [ 0.764706, 0.592157, 0.101961, 1.0 ],
									"color" : [ 0.646639, 0.821777, 0.854593, 1.0 ]
								}
,
								"parentstyle" : "",
								"multi" : 0
							}
 ]
					}
,
					"patching_rect" : [ 226.0, 297.0, 95.0, 22.0 ],
					"saved_object_attributes" : 					{
						"description" : "",
						"digest" : "",
						"globalpatchername" : "",
						"tags" : ""
					}
,
					"text" : "p boppad_parse"
				}

			}
, 			{
				"box" : 				{
					"id" : "obj-18",
					"linecount" : 2,
					"maxclass" : "comment",
					"numinlets" : 1,
					"numoutlets" : 0,
					"patching_rect" : [ 383.0, 266.5, 74.0, 33.0 ],
					"text" : "light/\nIntensity"
				}

			}
, 			{
				"box" : 				{
					"id" : "obj-16",
					"maxclass" : "slider",
					"numinlets" : 1,
					"numoutlets" : 1,
					"outlettype" : [ "" ],
					"parameter_enable" : 0,
					"patching_rect" : [ 383.0, 327.0, 20.0, 67.0 ],
					"size" : 101.0
				}

			}
, 			{
				"box" : 				{
					"bgcolor" : [ 1.0, 0.788235, 0.470588, 1.0 ],
					"fontface" : 1,
					"hint" : "",
					"id" : "obj-13",
					"ignoreclick" : 1,
					"legacytextcolor" : 1,
					"maxclass" : "textbutton",
					"numinlets" : 1,
					"numoutlets" : 3,
					"outlettype" : [ "", "", "int" ],
					"parameter_enable" : 0,
					"patching_rect" : [ 86.0, 170.5, 20.0, 20.0 ],
					"rounded" : 60.0,
					"text" : "2",
					"textcolor" : [ 0.34902, 0.34902, 0.34902, 1.0 ]
				}

			}
, 			{
				"box" : 				{
					"bgcolor" : [ 1.0, 0.788235, 0.470588, 1.0 ],
					"fontface" : 1,
					"hint" : "",
					"id" : "obj-93",
					"ignoreclick" : 1,
					"legacytextcolor" : 1,
					"maxclass" : "textbutton",
					"numinlets" : 1,
					"numoutlets" : 3,
					"outlettype" : [ "", "", "int" ],
					"parameter_enable" : 0,
					"patching_rect" : [ 133.0, 61.5, 20.0, 20.0 ],
					"rounded" : 60.0,
					"text" : "1",
					"textcolor" : [ 0.34902, 0.34902, 0.34902, 1.0 ]
				}

			}
, 			{
				"box" : 				{
					"id" : "obj-36",
					"maxclass" : "newobj",
					"numinlets" : 1,
					"numoutlets" : 1,
					"outlettype" : [ "" ],
					"patcher" : 					{
						"fileversion" : 1,
						"appversion" : 						{
							"major" : 8,
							"minor" : 0,
							"revision" : 3,
							"architecture" : "x64",
							"modernui" : 1
						}
,
						"classnamespace" : "box",
						"rect" : [ 59.0, 104.0, 640.0, 480.0 ],
						"bglocked" : 0,
						"openinpresentation" : 0,
						"default_fontsize" : 12.0,
						"default_fontface" : 0,
						"default_fontname" : "Arial",
						"gridonopen" : 1,
						"gridsize" : [ 15.0, 15.0 ],
						"gridsnaponopen" : 1,
						"objectsnaponopen" : 1,
						"statusbarvisible" : 2,
						"toolbarvisible" : 1,
						"lefttoolbarpinned" : 0,
						"toptoolbarpinned" : 0,
						"righttoolbarpinned" : 0,
						"bottomtoolbarpinned" : 0,
						"toolbars_unpinned_last_save" : 0,
						"tallnewobj" : 0,
						"boxanimatetime" : 200,
						"enablehscroll" : 1,
						"enablevscroll" : 1,
						"devicewidth" : 0.0,
						"description" : "",
						"digest" : "",
						"tags" : "",
						"style" : "",
						"subpatcher_template" : "",
						"boxes" : [ 							{
								"box" : 								{
									"id" : "obj-26",
									"maxclass" : "newobj",
									"numinlets" : 1,
									"numoutlets" : 1,
									"outlettype" : [ "" ],
									"patching_rect" : [ 107.0, 209.0, 110.0, 22.0 ],
									"text" : "dict.unpack status:"
								}

							}
, 							{
								"box" : 								{
									"id" : "obj-23",
									"maxclass" : "newobj",
									"numinlets" : 2,
									"numoutlets" : 2,
									"outlettype" : [ "", "" ],
									"patching_rect" : [ 107.0, 171.0, 85.0, 22.0 ],
									"text" : "route success"
								}

							}
, 							{
								"box" : 								{
									"id" : "obj-19",
									"maxclass" : "newobj",
									"numinlets" : 2,
									"numoutlets" : 2,
									"outlettype" : [ "", "" ],
									"patching_rect" : [ 107.0, 131.5, 65.0, 22.0 ],
									"text" : "route npm"
								}

							}
, 							{
								"box" : 								{
									"id" : "obj-14",
									"maxclass" : "newobj",
									"numinlets" : 1,
									"numoutlets" : 2,
									"outlettype" : [ "", "" ],
									"patching_rect" : [ 50.0, 100.0, 76.0, 22.0 ],
									"saved_object_attributes" : 									{
										"autostart" : 0,
										"defer" : 0,
										"node" : "",
										"npm" : "",
										"watch" : 0
									}
,
									"text" : "node.script ."
								}

							}
, 							{
								"box" : 								{
									"comment" : "",
									"id" : "obj-34",
									"index" : 1,
									"maxclass" : "inlet",
									"numinlets" : 0,
									"numoutlets" : 1,
									"outlettype" : [ "" ],
									"patching_rect" : [ 50.0, 40.0, 30.0, 30.0 ]
								}

							}
, 							{
								"box" : 								{
									"comment" : "",
									"id" : "obj-35",
									"index" : 1,
									"maxclass" : "outlet",
									"numinlets" : 1,
									"numoutlets" : 0,
									"patching_rect" : [ 107.0, 291.0, 30.0, 30.0 ]
								}

							}
 ],
						"lines" : [ 							{
								"patchline" : 								{
									"destination" : [ "obj-19", 0 ],
									"source" : [ "obj-14", 1 ]
								}

							}
, 							{
								"patchline" : 								{
									"destination" : [ "obj-23", 0 ],
									"source" : [ "obj-19", 0 ]
								}

							}
, 							{
								"patchline" : 								{
									"destination" : [ "obj-26", 0 ],
									"source" : [ "obj-23", 0 ]
								}

							}
, 							{
								"patchline" : 								{
									"destination" : [ "obj-35", 0 ],
									"source" : [ "obj-26", 0 ]
								}

							}
, 							{
								"patchline" : 								{
									"destination" : [ "obj-14", 0 ],
									"source" : [ "obj-34", 0 ]
								}

							}
 ]
					}
,
					"patching_rect" : [ 31.0, 95.5, 44.0, 22.0 ],
					"saved_object_attributes" : 					{
						"description" : "",
						"digest" : "",
						"globalpatchername" : "",
						"tags" : ""
					}
,
					"text" : "p npm"
				}

			}
, 			{
				"box" : 				{
					"id" : "obj-41",
					"maxclass" : "newobj",
					"numinlets" : 1,
					"numoutlets" : 0,
					"patching_rect" : [ 31.0, 127.0, 122.0, 22.0 ],
					"text" : "print npm @popup 1"
				}

			}
, 			{
				"box" : 				{
					"id" : "obj-43",
					"maxclass" : "message",
					"numinlets" : 2,
					"numoutlets" : 1,
					"outlettype" : [ "" ],
					"patching_rect" : [ 31.0, 60.5, 100.0, 22.0 ],
					"text" : "script npm install"
				}

			}
, 			{
				"box" : 				{
					"id" : "obj-5",
					"maxclass" : "message",
					"numinlets" : 2,
					"numoutlets" : 1,
					"outlettype" : [ "" ],
					"patching_rect" : [ 31.0, 232.5, 63.0, 22.0 ],
					"text" : "script stop"
				}

			}
, 			{
				"box" : 				{
					"id" : "obj-3",
					"maxclass" : "message",
					"numinlets" : 2,
					"numoutlets" : 1,
					"outlettype" : [ "" ],
					"patching_rect" : [ 31.0, 203.0, 64.0, 22.0 ],
					"text" : "script start"
				}

			}
, 			{
				"box" : 				{
					"id" : "obj-1",
					"maxclass" : "newobj",
					"numinlets" : 1,
					"numoutlets" : 2,
					"outlettype" : [ "", "" ],
					"patching_rect" : [ 89.75, 471.0, 153.0, 22.0 ],
					"saved_object_attributes" : 					{
						"autostart" : 0,
						"defer" : 0,
						"node" : "",
						"npm" : "",
						"watch" : 0
					}
,
					"text" : "node.script max_sockets.js"
				}

			}
 ],
		"lines" : [ 			{
				"patchline" : 				{
					"destination" : [ "obj-160", 0 ],
					"source" : [ "obj-1", 0 ]
				}

			}
, 			{
				"patchline" : 				{
					"destination" : [ "obj-32", 1 ],
					"source" : [ "obj-106", 0 ]
				}

			}
, 			{
				"patchline" : 				{
					"destination" : [ "obj-32", 2 ],
					"source" : [ "obj-114", 0 ]
				}

			}
, 			{
				"patchline" : 				{
					"destination" : [ "obj-32", 3 ],
					"source" : [ "obj-117", 0 ]
				}

			}
, 			{
				"patchline" : 				{
					"destination" : [ "obj-32", 4 ],
					"source" : [ "obj-118", 0 ]
				}

			}
, 			{
				"patchline" : 				{
					"destination" : [ "obj-42", 1 ],
					"source" : [ "obj-12", 1 ]
				}

			}
, 			{
				"patchline" : 				{
					"destination" : [ "obj-42", 0 ],
					"source" : [ "obj-12", 0 ]
				}

			}
, 			{
				"patchline" : 				{
					"destination" : [ "obj-57", 3 ],
					"source" : [ "obj-120", 0 ]
				}

			}
, 			{
				"patchline" : 				{
					"destination" : [ "obj-120", 2 ],
					"source" : [ "obj-121", 0 ]
				}

			}
, 			{
				"patchline" : 				{
					"destination" : [ "obj-38", 2 ],
					"source" : [ "obj-122", 0 ]
				}

			}
, 			{
				"patchline" : 				{
					"destination" : [ "obj-128", 0 ],
					"source" : [ "obj-123", 0 ]
				}

			}
, 			{
				"patchline" : 				{
					"destination" : [ "obj-123", 0 ],
					"source" : [ "obj-124", 0 ]
				}

			}
, 			{
				"patchline" : 				{
					"destination" : [ "obj-130", 0 ],
					"source" : [ "obj-125", 0 ]
				}

			}
, 			{
				"patchline" : 				{
					"destination" : [ "obj-124", 0 ],
					"source" : [ "obj-126", 0 ]
				}

			}
, 			{
				"patchline" : 				{
					"destination" : [ "obj-129", 0 ],
					"source" : [ "obj-128", 0 ]
				}

			}
, 			{
				"patchline" : 				{
					"destination" : [ "obj-136", 0 ],
					"source" : [ "obj-129", 0 ]
				}

			}
, 			{
				"patchline" : 				{
					"destination" : [ "obj-1", 0 ],
					"source" : [ "obj-130", 0 ]
				}

			}
, 			{
				"patchline" : 				{
					"destination" : [ "obj-120", 1 ],
					"source" : [ "obj-134", 0 ]
				}

			}
, 			{
				"patchline" : 				{
					"destination" : [ "obj-134", 0 ],
					"source" : [ "obj-136", 0 ]
				}

			}
, 			{
				"patchline" : 				{
					"destination" : [ "obj-120", 1 ],
					"source" : [ "obj-16", 0 ]
				}

			}
, 			{
				"patchline" : 				{
					"destination" : [ "obj-11", 1 ],
					"order" : 3,
					"source" : [ "obj-160", 0 ]
				}

			}
, 			{
				"patchline" : 				{
					"destination" : [ "obj-17", 1 ],
					"order" : 0,
					"source" : [ "obj-160", 0 ]
				}

			}
, 			{
				"patchline" : 				{
					"destination" : [ "obj-19", 0 ],
					"order" : 1,
					"source" : [ "obj-160", 0 ]
				}

			}
, 			{
				"patchline" : 				{
					"destination" : [ "obj-21", 0 ],
					"order" : 2,
					"source" : [ "obj-160", 0 ]
				}

			}
, 			{
				"patchline" : 				{
					"destination" : [ "obj-28", 1 ],
					"source" : [ "obj-19", 0 ]
				}

			}
, 			{
				"patchline" : 				{
					"destination" : [ "obj-29", 1 ],
					"source" : [ "obj-19", 1 ]
				}

			}
, 			{
				"patchline" : 				{
					"destination" : [ "obj-114", 0 ],
					"source" : [ "obj-2", 1 ]
				}

			}
, 			{
				"patchline" : 				{
					"destination" : [ "obj-31", 0 ],
					"source" : [ "obj-2", 0 ]
				}

			}
, 			{
				"patchline" : 				{
					"destination" : [ "obj-66", 0 ],
					"source" : [ "obj-20", 0 ]
				}

			}
, 			{
				"patchline" : 				{
					"destination" : [ "obj-25", 0 ],
					"source" : [ "obj-21", 1 ]
				}

			}
, 			{
				"patchline" : 				{
					"destination" : [ "obj-42", 1 ],
					"source" : [ "obj-22", 1 ]
				}

			}
, 			{
				"patchline" : 				{
					"destination" : [ "obj-42", 0 ],
					"source" : [ "obj-22", 0 ]
				}

			}
, 			{
				"patchline" : 				{
					"destination" : [ "obj-24", 0 ],
					"source" : [ "obj-23", 0 ]
				}

			}
, 			{
				"patchline" : 				{
					"destination" : [ "obj-53", 0 ],
					"source" : [ "obj-24", 0 ]
				}

			}
, 			{
				"patchline" : 				{
					"destination" : [ "obj-26", 0 ],
					"order" : 1,
					"source" : [ "obj-25", 0 ]
				}

			}
, 			{
				"patchline" : 				{
					"destination" : [ "obj-70", 0 ],
					"order" : 0,
					"source" : [ "obj-25", 0 ]
				}

			}
, 			{
				"patchline" : 				{
					"destination" : [ "obj-1", 0 ],
					"source" : [ "obj-3", 0 ]
				}

			}
, 			{
				"patchline" : 				{
					"destination" : [ "obj-44", 1 ],
					"source" : [ "obj-30", 0 ]
				}

			}
, 			{
				"patchline" : 				{
					"destination" : [ "obj-32", 0 ],
					"source" : [ "obj-31", 0 ]
				}

			}
, 			{
				"patchline" : 				{
					"destination" : [ "obj-57", 1 ],
					"source" : [ "obj-32", 0 ]
				}

			}
, 			{
				"patchline" : 				{
					"destination" : [ "obj-42", 1 ],
					"source" : [ "obj-33", 1 ]
				}

			}
, 			{
				"patchline" : 				{
					"destination" : [ "obj-42", 0 ],
					"source" : [ "obj-33", 0 ]
				}

			}
, 			{
				"patchline" : 				{
					"destination" : [ "obj-30", 1 ],
					"source" : [ "obj-34", 0 ]
				}

			}
, 			{
				"patchline" : 				{
					"destination" : [ "obj-37", 0 ],
					"order" : 0,
					"source" : [ "obj-35", 0 ]
				}

			}
, 			{
				"patchline" : 				{
					"destination" : [ "obj-50", 0 ],
					"order" : 1,
					"source" : [ "obj-35", 0 ]
				}

			}
, 			{
				"patchline" : 				{
					"destination" : [ "obj-41", 0 ],
					"source" : [ "obj-36", 0 ]
				}

			}
, 			{
				"patchline" : 				{
					"destination" : [ "obj-39", 0 ],
					"source" : [ "obj-37", 0 ]
				}

			}
, 			{
				"patchline" : 				{
					"destination" : [ "obj-57", 2 ],
					"source" : [ "obj-38", 0 ]
				}

			}
, 			{
				"patchline" : 				{
					"destination" : [ "obj-30", 5 ],
					"source" : [ "obj-39", 2 ]
				}

			}
, 			{
				"patchline" : 				{
					"destination" : [ "obj-30", 4 ],
					"source" : [ "obj-39", 1 ]
				}

			}
, 			{
				"patchline" : 				{
					"destination" : [ "obj-30", 3 ],
					"source" : [ "obj-39", 0 ]
				}

			}
, 			{
				"patchline" : 				{
					"destination" : [ "obj-122", 1 ],
					"source" : [ "obj-4", 3 ]
				}

			}
, 			{
				"patchline" : 				{
					"destination" : [ "obj-122", 0 ],
					"source" : [ "obj-4", 0 ]
				}

			}
, 			{
				"patchline" : 				{
					"destination" : [ "obj-36", 0 ],
					"source" : [ "obj-43", 0 ]
				}

			}
, 			{
				"patchline" : 				{
					"destination" : [ "obj-1", 0 ],
					"source" : [ "obj-44", 0 ]
				}

			}
, 			{
				"patchline" : 				{
					"destination" : [ "obj-22", 0 ],
					"source" : [ "obj-45", 0 ]
				}

			}
, 			{
				"patchline" : 				{
					"destination" : [ "obj-45", 0 ],
					"source" : [ "obj-46", 0 ]
				}

			}
, 			{
				"patchline" : 				{
					"destination" : [ "obj-33", 0 ],
					"source" : [ "obj-47", 0 ]
				}

			}
, 			{
				"patchline" : 				{
					"destination" : [ "obj-47", 0 ],
					"source" : [ "obj-48", 0 ]
				}

			}
, 			{
				"patchline" : 				{
					"destination" : [ "obj-1", 0 ],
					"source" : [ "obj-5", 0 ]
				}

			}
, 			{
				"patchline" : 				{
					"destination" : [ "obj-44", 0 ],
					"order" : 0,
					"source" : [ "obj-50", 0 ]
				}

			}
, 			{
				"patchline" : 				{
					"destination" : [ "obj-59", 0 ],
					"order" : 1,
					"source" : [ "obj-50", 0 ]
				}

			}
, 			{
				"patchline" : 				{
					"destination" : [ "obj-58", 0 ],
					"source" : [ "obj-51", 0 ]
				}

			}
, 			{
				"patchline" : 				{
					"destination" : [ "obj-51", 0 ],
					"source" : [ "obj-52", 0 ]
				}

			}
, 			{
				"patchline" : 				{
					"destination" : [ "obj-12", 0 ],
					"source" : [ "obj-53", 0 ]
				}

			}
, 			{
				"patchline" : 				{
					"destination" : [ "obj-1", 0 ],
					"source" : [ "obj-57", 0 ]
				}

			}
, 			{
				"patchline" : 				{
					"destination" : [ "obj-42", 1 ],
					"source" : [ "obj-58", 1 ]
				}

			}
, 			{
				"patchline" : 				{
					"destination" : [ "obj-42", 0 ],
					"source" : [ "obj-58", 0 ]
				}

			}
, 			{
				"patchline" : 				{
					"destination" : [ "obj-43", 0 ],
					"source" : [ "obj-6", 0 ]
				}

			}
, 			{
				"patchline" : 				{
					"destination" : [ "obj-66", 0 ],
					"source" : [ "obj-60", 0 ]
				}

			}
, 			{
				"patchline" : 				{
					"destination" : [ "obj-60", 0 ],
					"source" : [ "obj-62", 0 ]
				}

			}
, 			{
				"patchline" : 				{
					"destination" : [ "obj-125", 0 ],
					"order" : 1,
					"source" : [ "obj-65", 0 ]
				}

			}
, 			{
				"patchline" : 				{
					"destination" : [ "obj-57", 0 ],
					"order" : 0,
					"source" : [ "obj-65", 0 ]
				}

			}
, 			{
				"patchline" : 				{
					"destination" : [ "obj-2", 0 ],
					"source" : [ "obj-66", 0 ]
				}

			}
, 			{
				"patchline" : 				{
					"destination" : [ "obj-20", 0 ],
					"midpoints" : [ 202.5, 105.0, 216.0, 105.0, 216.0, 78.0, 229.25, 78.0 ],
					"source" : [ "obj-66", 1 ]
				}

			}
, 			{
				"patchline" : 				{
					"destination" : [ "obj-60", 1 ],
					"source" : [ "obj-68", 0 ]
				}

			}
, 			{
				"patchline" : 				{
					"destination" : [ "obj-3", 0 ],
					"source" : [ "obj-7", 0 ]
				}

			}
, 			{
				"patchline" : 				{
					"destination" : [ "obj-23", 0 ],
					"source" : [ "obj-70", 0 ]
				}

			}
, 			{
				"patchline" : 				{
					"destination" : [ "obj-46", 0 ],
					"source" : [ "obj-70", 2 ]
				}

			}
, 			{
				"patchline" : 				{
					"destination" : [ "obj-48", 0 ],
					"source" : [ "obj-70", 3 ]
				}

			}
, 			{
				"patchline" : 				{
					"destination" : [ "obj-52", 0 ],
					"source" : [ "obj-70", 1 ]
				}

			}
, 			{
				"patchline" : 				{
					"destination" : [ "obj-65", 0 ],
					"source" : [ "obj-73", 0 ]
				}

			}
 ],
		"dependency_cache" : [ 			{
				"name" : "Max-sockets",
				"bootpath" : "~/Documents/Zonesound/two-ways-transmission",
				"patcherrelativepath" : "..",
				"type" : "fold",
				"implicit" : 1
			}
 ],
		"autosave" : 0
	}

}
